<?xml version="1.0" encoding="UTF-8" standalone="no"?>
<!-- Uploaded to: SVG Repo, www.svgrepo.com, Generator: SVG Repo Mixer Tools -->

<svg
   version="1.1"
   id="_x32_"
   viewBox="0 0 512 512"
   xml:space="preserve"
   sodipodi:docname="colon-cancer-survival-analysis.svg"
   inkscape:version="1.3.2 (091e20e, 2023-11-25, custom)"
   xmlns:inkscape="http://www.inkscape.org/namespaces/inkscape"
   xmlns:sodipodi="http://sodipodi.sourceforge.net/DTD/sodipodi-0.dtd"
   xmlns="http://www.w3.org/2000/svg"
   xmlns:svg="http://www.w3.org/2000/svg"><defs
   id="defs1" /><sodipodi:namedview
   id="namedview1"
   pagecolor="#505050"
   bordercolor="#ffffff"
   borderopacity="1"
   inkscape:showpageshadow="0"
   inkscape:pageopacity="0"
   inkscape:pagecheckerboard="1"
   inkscape:deskcolor="#505050"
   inkscape:zoom="2.5683594"
   inkscape:cx="255.80532"
   inkscape:cy="256"
   inkscape:window-width="2560"
   inkscape:window-height="1571"
   inkscape:window-x="-9"
   inkscape:window-y="-9"
   inkscape:window-maximized="1"
   inkscape:current-layer="_x32_" />
<style
   type="text/css"
   id="style1">
	.st0{fill:#000000;}
</style>
	<g
   id="g1">
	<path
   class="st0"
   d="M511.988,132.826c0.386-18.808-8.372-35.627-22.15-46.366c7.851-20.555,3.476-44.695-13.149-61.186v0.009   c-19.832-19.682-50.405-21.848-72.639-6.651C390.632,4.895,370.152-0.915,350.672,5.449c-8.287,2.704-15.415,7.306-21.1,13.149   c-8.648-7.825-19.984-12.779-32.545-13.224c-17.263-0.63-32.822,7.397-42.58,20.151c-9.37-12.25-24.106-20.186-40.723-20.186   c-13.553,0-25.853,5.299-35.022,13.897c-5.122-4.283-11.033-7.776-17.7-10.127c-20.815-7.321-42.983-1.88-58.08,12.159   c-3.3-1.705-6.818-3.106-10.554-4.132c-28.927-7.943-58.81,9.06-66.753,37.987c-3.737,13.602-1.889,27.406,4.064,39.061   c-18.606,9.067-30.908,28.682-29.581,50.648c0.698,11.52,5.08,21.915,11.881,30.211C3.91,185.053-0.263,198.185,1.475,211.939   c1.939,15.332,10.772,28.094,22.998,35.61c-5.659,9.043-8.372,20.009-6.919,31.428c3.308,26.248,27.289,44.854,53.553,41.53   c26.256-3.325,44.863-27.297,41.538-53.562c-0.025-0.125-0.058-0.252-0.067-0.377c9.035-9.371,13.914-22.579,12.159-36.492   c-1.637-12.956-8.716-23.871-18.632-30.815c8.707-9.204,14.098-21.588,14.098-35.258c0-7.07-1.428-13.813-4.022-19.934   c11.1-4.056,20.504-11.587,26.86-21.328c7.969,5.475,17.49,8.876,27.852,9.262c15.727,0.588,30.085-5.793,40.161-16.356   c9.026,12.829,23.686,21.478,40.572,22.116c15.475,0.588,29.598-5.693,39.531-16.054c4.685,4.031,10.16,7.305,16.348,9.488   c21.21,7.44,43.99,0.102,57.198-16.591c7.254,11.285,19.052,19.32,32.822,21.562c0.117,1.553,0.344,3.073,0.596,4.592   c-2.292,5.492-3.644,11.478-3.779,17.784c-0.218,10.941,3.199,21.084,9.077,29.362c-6.634,5.24-11.822,12.461-14.552,21.143   c-4.341,13.737-1.494,27.986,6.348,38.809c-5.575,1.268-10.982,3.644-15.886,7.238c-9.203,6.734-14.904,16.458-16.836,26.86   c-3.517-2.578-7.414-4.736-11.721-6.314v-0.008c-21.622-7.944-45.3,0.823-56.887,19.757c-8.271-5.995-18.414-9.564-29.422-9.564   c-27.776,0-50.288,22.503-50.288,50.279c0,9.421,2.637,18.204,7.154,25.744c-5.155,6.734-8.237,15.114-8.237,24.242   c0,9.816,3.543,18.8,9.412,25.768c-1.461,4.484-2.284,9.27-2.284,14.258c0,14.787,7.036,27.894,17.91,36.256   c4.752,22.176,12.326,46.752,12.326,46.752h40.228l9.345-52.512c7.246-8.103,11.696-18.758,11.696-30.496   c0-10.244-3.4-19.665-9.085-27.28c18.54-0.966,34.25-12.536,41.11-28.818c15.139,16.483,40.572,19.312,59.07,5.786   c6.902-5.055,11.872-11.739,14.895-19.127c12.662,3.66,26.811,1.729,38.381-6.533v0.016c17.196-12.292,23.032-34.493,15.382-53.242   c14.837-4.602,27.248-16.139,32.269-32.084c5.038-16.021,1.435-32.696-8.196-44.989c6.189-7.918,10.042-17.776,10.386-28.599   c0.269-8.934-1.898-17.373-5.86-24.72c7.204-9.362,11.629-20.983,11.906-33.695V132.826z"
   id="path1" />
</g>
<path
   style="fill:#ffffff;stroke-width:0.389354"
   d="m 250.54905,508.95101 c 0,-0.0708 -1.30513,-4.68914 -2.9003,-10.26285 -3.22774,-11.27825 -6.65538,-24.37996 -8.22319,-31.43221 l -1.03167,-4.64059 -3.79817,-3.73051 c -4.06604,-3.99356 -7.04691,-7.94967 -9.21811,-12.23392 -1.87694,-3.70361 -3.88952,-9.96325 -4.44201,-13.81579 -0.68217,-4.75688 -0.30522,-13.0493 0.79315,-17.44864 l 0.88832,-3.55796 -1.79812,-2.51985 c -5.58147,-7.82173 -8.31263,-17.91624 -7.29477,-26.96186 0.76842,-6.82888 2.78817,-12.56876 6.34495,-18.03151 l 1.59895,-2.45578 -1.78464,-3.61807 c -3.69069,-7.48228 -5.10662,-13.51633 -5.1249,-21.83995 -0.0143,-6.5155 0.47333,-9.914 2.20672,-15.37947 4.02376,-12.68708 13.1532,-23.49265 24.82866,-29.3871 4.26534,-2.15339 9.22093,-3.89327 13.52035,-4.74692 4.77561,-0.94819 14.3107,-0.935 18.78023,0.026 6.48132,1.39354 12.25504,3.7227 17.31422,6.9847 l 2.6977,1.73939 1.87776,-2.67383 c 9.51292,-13.54592 26.63798,-21.49233 42.77909,-19.85045 7.51841,0.76478 14.44534,3.09087 20.47226,6.87468 1.85357,1.16372 3.4085,2.06807 3.45538,2.00968 0.0469,-0.0584 0.55567,-1.77065 1.13065,-3.80502 3.81771,-13.5079 14.07424,-24.33907 27.31111,-28.84127 1.84176,-0.62643 3.59779,-1.13896 3.90226,-1.13896 0.76613,0 0.73654,-0.0884 -0.87075,-2.60094 -2.19895,-3.43754 -4.30274,-8.2135 -5.47957,-12.43963 -0.9919,-3.56202 -1.06969,-4.36987 -1.0637,-11.04612 0.006,-6.20534 0.12564,-7.64055 0.86685,-10.36161 2.37283,-8.71091 6.76996,-16.08496 12.89652,-21.62759 l 2.43579,-2.20364 -2.15304,-3.57141 c -7.1483,-11.85741 -8.80777,-26.59913 -4.4838,-39.83098 1.17141,-3.58474 1.28923,-4.52153 0.88002,-6.99744 -0.19441,-1.17639 -0.44332,-1.50877 -1.26112,-1.68399 -12.11994,-2.59699 -22.83278,-9.28195 -29.68335,-18.52286 -1.08541,-1.46415 -2.03431,-2.66208 -2.10866,-2.66208 -0.0744,0 -1.94127,1.80221 -4.1487,4.00492 -6.97371,6.95878 -14.63791,11.30614 -24.2599,13.76094 -5.38688,1.37432 -14.32876,1.70432 -20.08779,0.74134 -9.08379,-1.51892 -15.28627,-4.35075 -24.70048,-11.27736 -0.34829,-0.25626 -1.2748,0.35506 -3.16023,2.08514 -5.44137,4.99303 -12.2618,8.89652 -19.63927,11.24002 -5.52939,1.75644 -8.8209,2.21926 -15.53923,2.18496 -10.93163,-0.0558 -19.20928,-2.57647 -28.42281,-8.65509 -3.58325,-2.36405 -9.52026,-7.85984 -12.09218,-11.19352 l -1.60488,-2.08022 -3.30181,2.88663 c -14.03237,12.26796 -32.1868,16.38593 -49.77527,11.29054 -3.88663,-1.12596 -10.4609,-4.12245 -13.24067,-6.03498 -0.99229,-0.68272 -1.84545,-1.18062 -1.8959,-1.10644 -3.7189,5.46807 -9.92858,11.81227 -14.73199,15.05114 -3.20852,2.16347 -7.63132,4.57974 -10.3322,5.64472 -0.91012,0.35886 -1.65476,0.79841 -1.65476,0.97678 0,0.17837 0.44308,1.62527 0.98462,3.21533 2.30734,6.77478 3.25772,14.81824 2.52678,21.3853 -1.20859,10.85839 -4.69142,19.20242 -11.60475,27.80222 l -2.1616,2.6889 1.1366,0.945 c 6.72231,5.5891 9.838,9.38059 13.04158,15.87034 3.05263,6.18394 4.25077,10.82465 4.53409,17.56172 0.26343,6.2641 -0.26478,10.25871 -2.07974,15.72802 -1.97948,5.96506 -5.1727,11.56396 -8.80003,15.42969 l -1.14315,1.21828 -0.10319,7.3475 c -0.0917,6.53152 -0.21723,7.76651 -1.13007,11.12054 -2.72206,10.00161 -7.79371,18.14586 -15.359036,24.66413 -12.507642,10.77655 -30.27678,14.30435 -45.820021,9.09689 -25.151506,-8.42653 -38.708073,-35.31732 -30.37174,-60.24534 0.764064,-2.28477 2.157956,-5.60005 3.097539,-7.3673 l 1.708331,-3.21317 -2.410614,-1.61851 C 18.614785,243.36115 11.923294,236.47608 9.3644516,232.53724 -0.95377593,216.65436 -1.3417977,196.54159 8.3636216,180.6601 c 0.9160681,-1.49902 2.1818034,-3.38066 2.8127464,-4.18143 l 1.147168,-1.45595 -1.346969,-1.65888 C 4.4719092,165.35292 0.1899221,152.68771 0.19697208,141.48007 c 0.00803,-12.76501 5.24095652,-25.99025 14.05570292,-35.52315 3.332487,-3.60399 8.723079,-7.87162 12.699698,-10.054114 1.558248,-0.855219 2.833178,-1.588224 2.833178,-1.628908 0,-0.04068 -0.626291,-1.557924 -1.391757,-3.37165 C 23.055513,78.253515 22.517859,64.507507 26.872521,52.008372 29.73669,43.787381 33.618742,37.619364 39.897275,31.313926 54.35262,16.796634 75.372824,11.756817 94.807605,18.148593 c 2.034372,0.669072 4.681763,1.711533 5.883095,2.316582 l 2.18423,1.100088 2.29334,-1.953095 c 7.38408,-6.288587 16.95258,-10.8021723 26.8226,-12.6525652 5.65221,-1.0596531 15.67881,-0.9732985 21.09846,0.1817117 9.10029,1.9394116 15.15056,4.7950375 25.19086,11.8896785 0.32776,0.231599 1.49964,-0.477927 3.62979,-2.197691 17.39235,-14.0416197 41.46558,-15.011869 60.46264,-2.436891 1.60609,1.063136 4.9818,3.989316 7.50159,6.502623 l 4.58144,4.569648 4.37369,-4.403139 c 7.17343,-7.221709 14.49782,-11.4696756 24.03606,-13.9403092 5.86695,-1.5196808 14.43741,-1.904884 20.44013,-0.9186907 8.77641,1.4418858 17.81485,5.5469759 24.25562,11.0164439 l 2.06152,1.75064 2.41604,-2.304304 C 344.89789,4.404858 364.62863,0.02080351 382.29619,5.5024078 c 6.56279,2.0362016 13.94084,6.3538892 20.1128,11.7701462 l 1.76412,1.54813 2.12942,-1.375053 c 9.62014,-6.212161 23.33875,-9.4711368 35.02979,-8.3216364 13.86765,1.3635114 25.57236,6.8624684 35.24191,16.5568914 8.34311,8.364554 13.32423,17.639278 15.79647,29.41265 0.67716,3.224962 0.86281,5.444752 0.87908,10.512548 0.0231,7.18007 -0.56861,11.348341 -2.43451,17.150641 l -1.13317,3.523751 4.95631,4.944935 c 8.83809,8.817719 13.81512,18.087199 16.25127,30.267039 1.04432,5.22143 0.95505,15.77253 -0.17821,21.05149 -1.67293,7.79326 -4.70417,15.02764 -8.78378,20.96368 l -2.12637,3.09394 1.1461,2.27038 c 3.01437,5.97147 4.62825,13.27249 4.62825,20.93795 0,10.16047 -2.37483,18.07238 -8.04681,26.80869 l -2.1119,3.25279 1.98835,2.97686 c 5.5486,8.3072 8.27914,17.25533 8.27466,27.11679 -0.004,7.96572 -1.38738,14.09475 -4.76755,21.11617 -5.60459,11.64202 -14.61252,19.95748 -26.67972,24.62869 -1.28487,0.49737 -2.465,1.01461 -2.62245,1.14942 -0.1575,0.13481 0.0552,1.14397 0.47259,2.24258 0.41747,1.0986 1.13186,3.80813 1.58756,6.02118 1.16381,5.6517 0.92969,14.33832 -0.53634,19.90052 -4.35628,16.52818 -17.9594,29.18678 -34.88889,32.46651 -4.38283,0.84908 -11.66659,0.84303 -16.09023,-0.0134 -1.8747,-0.36293 -3.66537,-0.75844 -3.97931,-0.87891 -0.40539,-0.15557 -0.85183,0.41651 -1.54083,1.97447 -2.37369,5.36733 -7.72224,12.09166 -12.84006,16.1429 -12.5579,9.9407 -30.1322,12.17517 -45.01901,5.7239 -3.98342,-1.72623 -10.07867,-5.77178 -12.62573,-8.37997 -1.06267,-1.08818 -2.11393,-1.97784 -2.33612,-1.97704 -0.2222,8e-4 -0.72715,0.78727 -1.12211,1.7477 -1.54057,3.74616 -5.89652,9.64204 -10.07024,13.63031 -7.78048,7.43474 -17.21795,11.89471 -27.38747,12.94273 l -2.86518,0.29529 1.75846,2.72547 c 4.96831,7.70048 7.29918,15.61227 7.28388,24.72396 -0.017,10.11953 -2.93205,18.87263 -9.05853,27.20024 l -2.56869,3.49161 -4.6422,26.12021 -4.64219,26.12026 h -19.97528 c -10.98641,0 -19.97528,-0.058 -19.97528,-0.12884 z"
   id="path2" /></svg>
