<?xml version="1.0" encoding="UTF-8" standalone="no"?>
<!-- Uploaded to: SVG Repo, www.svgrepo.com, Generator: SVG Repo Mixer Tools -->

<svg
   viewBox="0 0 24 24"
   fill="none"
   version="1.1"
   id="svg1"
   sodipodi:docname="fire-lookout.svg"
   inkscape:version="1.3.2 (091e20e, 2023-11-25, custom)"
   xmlns:inkscape="http://www.inkscape.org/namespaces/inkscape"
   xmlns:sodipodi="http://sodipodi.sourceforge.net/DTD/sodipodi-0.dtd"
   xmlns="http://www.w3.org/2000/svg"
   xmlns:svg="http://www.w3.org/2000/svg">
  <defs
     id="defs1" />
  <sodipodi:namedview
     id="namedview1"
     pagecolor="#505050"
     bordercolor="#ffffff"
     borderopacity="1"
     inkscape:showpageshadow="0"
     inkscape:pageopacity="0"
     inkscape:pagecheckerboard="1"
     inkscape:deskcolor="#505050"
     inkscape:zoom="54.791667"
     inkscape:cx="11.990875"
     inkscape:cy="12"
     inkscape:window-width="2560"
     inkscape:window-height="1571"
     inkscape:window-x="-9"
     inkscape:window-y="-9"
     inkscape:window-maximized="1"
     inkscape:current-layer="svg1" />
  <path
     d="M5.926 20.574a7.26 7.26 0 0 0 3.039 1.511c.107.035.179-.105.107-.175-2.395-2.285-1.079-4.758-.107-5.873.693-.796 1.68-2.107 1.608-3.865 0-.176.18-.317.322-.211 1.359.703 2.288 2.25 2.538 3.515.394-.386.537-.984.537-1.511 0-.176.214-.317.393-.176 1.287 1.16 3.503 5.097-.072 8.19-.071.071 0 .212.072.177a8.761 8.761 0 0 0 3.003-1.442c5.827-4.5 2.037-12.48-.43-15.116-.321-.317-.893-.106-.893.351-.036.95-.322 2.004-1.072 2.707-.572-2.39-2.478-5.105-5.195-6.441-.357-.176-.786.105-.75.492.07 3.27-2.063 5.352-3.922 8.059-1.645 2.425-2.717 6.89.822 9.808z"
     fill="#000000"
     id="path1" />
  <path
     style="fill:#ffffff;stroke-width:0.0182509"
     d="m 14.291529,22.106966 c -0.01563,-0.02231 -0.02841,-0.04738 -0.02841,-0.0557 0,-0.0083 0.150663,-0.164598 0.334806,-0.34727 0.545423,-0.541064 0.874326,-0.984265 1.153939,-1.554945 0.31763,-0.648273 0.457129,-1.214901 0.477075,-1.937819 0.015,-0.543649 -0.03275,-0.968577 -0.167522,-1.490651 -0.267348,-1.035673 -0.843479,-2.080422 -1.533092,-2.780089 -0.220379,-0.223592 -0.281393,-0.251742 -0.416301,-0.192065 -0.12002,0.05309 -0.143607,0.109883 -0.160701,0.386936 -0.03259,0.528293 -0.17884,0.9291 -0.462535,1.267646 -0.03317,0.03958 -0.04736,0.04688 -0.05326,0.02738 -0.0044,-0.01462 -0.02647,-0.100498 -0.049,-0.19084 -0.09625,-0.385983 -0.306491,-0.907633 -0.516234,-1.2809 -0.462426,-0.822952 -1.090742,-1.492059 -1.788472,-1.904581 -0.244598,-0.144615 -0.286097,-0.157384 -0.373183,-0.11483 -0.120893,0.05907 -0.14653,0.140014 -0.148321,0.468278 -0.0065,1.196017 -0.494195,2.321116 -1.5360472,3.54382 -0.3601201,0.422632 -0.5933606,0.760672 -0.8012406,1.161254 -0.6290661,1.212203 -0.6791367,2.4054 -0.1465672,3.492738 0.1913839,0.390746 0.463737,0.769548 0.8362755,1.163137 0.1019493,0.10771 0.1853624,0.202385 0.1853624,0.210388 0,0.008 -0.012785,0.0328 -0.028411,0.05511 -0.038479,0.05494 -0.085399,0.05202 -0.3550372,-0.02209 C 7.7243482,21.739707 6.8279352,21.284368 6.0446405,20.655621 5.3713254,20.115155 4.8673102,19.549889 4.4631871,18.88198 3.9789204,18.081614 3.6946788,17.195969 3.6046211,16.206844 3.5775891,15.909945 3.5824055,15.240806 3.6139601,14.909395 3.7470691,13.511381 4.2609428,12.069663 5.0593171,10.854319 5.2287194,10.596443 5.629899,10.037131 6.2131275,9.2457142 7.2145803,7.8867844 7.6069615,7.3053759 7.9948672,6.6056324 8.5342896,5.6325673 8.8583692,4.6950693 8.9786661,3.7596958 9.0122935,3.4982264 9.0443735,2.9679526 9.0411011,2.7276655 9.0391474,2.5841876 9.0455816,2.5406242 9.0793091,2.4689762 9.1623099,2.2926563 9.3526007,2.1740908 9.5502167,2.1755654 c 0.097831,7.3e-4 0.1398638,0.013129 0.2890956,0.085276 0.3933147,0.1901514 0.9569837,0.5395928 1.3667717,0.8473176 1.659359,1.2460737 2.979265,3.0753592 3.591123,4.9770122 0.05491,0.1706464 0.114128,0.3698099 0.131604,0.4425856 0.01748,0.072776 0.03844,0.1323193 0.04658,0.1323193 0.025,0 0.251869,-0.2563495 0.363418,-0.4106463 0.405702,-0.5611732 0.65654,-1.3343927 0.704566,-2.1718632 0.0063,-0.1104182 0.02318,-0.2379788 0.03744,-0.2834679 0.09147,-0.2917454 0.471604,-0.4261584 0.747674,-0.2643708 0.175904,0.1030872 0.796865,0.8819919 1.222452,1.5333901 1.198528,1.8344499 2.036334,4.017556 2.288961,5.964437 0.07354,0.566706 0.08292,0.726149 0.08184,1.390696 -9.08e-4,0.560428 -0.007,0.705711 -0.04129,0.988095 -0.193342,1.59144 -0.739837,2.883822 -1.712223,4.049167 -0.901039,1.07984 -2.098148,1.913041 -3.497439,2.434256 -0.247015,0.09201 -0.778344,0.25776 -0.826274,0.25776 -0.01352,0 -0.03737,-0.01825 -0.053,-0.04056 z"
     id="path2" />
</svg>
