<?xml version="1.0" encoding="UTF-8" standalone="no"?>
<!-- Uploaded to: SVG Repo, www.svgrepo.com, Generator: SVG Repo Mixer Tools -->

<svg
   viewBox="0 0 20 20"
   version="1.1"
   id="svg1"
   sodipodi:docname="game-of-life.svg"
   inkscape:version="1.3.2 (091e20e, 2023-11-25, custom)"
   xmlns:inkscape="http://www.inkscape.org/namespaces/inkscape"
   xmlns:sodipodi="http://sodipodi.sourceforge.net/DTD/sodipodi-0.dtd"
   xmlns="http://www.w3.org/2000/svg"
   xmlns:svg="http://www.w3.org/2000/svg">
  <sodipodi:namedview
     id="namedview1"
     pagecolor="#505050"
     bordercolor="#ffffff"
     borderopacity="1"
     inkscape:showpageshadow="0"
     inkscape:pageopacity="0"
     inkscape:pagecheckerboard="1"
     inkscape:deskcolor="#505050"
     inkscape:zoom="65.75"
     inkscape:cx="9.9923954"
     inkscape:cy="10"
     inkscape:window-width="2560"
     inkscape:window-height="1571"
     inkscape:window-x="-9"
     inkscape:window-y="-9"
     inkscape:window-maximized="1"
     inkscape:current-layer="svg1" />
  <title
     id="title1">chess [#1218]</title>
  <desc
     id="desc1">Created with Sketch.</desc>
  <defs
     id="defs1" />
  <g
     id="Page-1"
     stroke="none"
     stroke-width="1"
     fill="none"
     fill-rule="evenodd">
    <g
       id="Dribbble-Light-Preview"
       transform="translate(-220.000000, -2719.000000)"
       fill="#000000">
      <g
         id="icons"
         transform="translate(56.000000, 160.000000)">
        <path
           d="M174,2573 L178,2573 L178,2569 L174,2569 L174,2573 Z M170,2569 L174,2569 L174,2565 L170,2565 L170,2569 Z M182,2565 L178,2565 L178,2569 L182,2569 L182,2573 L178,2573 L178,2577 L174,2577 L174,2573 L170,2573 L170,2577 L167,2577 C166.448,2577 166,2576.657 166,2576.105 L166,2573 L170,2573 L170,2569 L166,2569 L166,2565 L170,2565 L170,2561 L174,2561 L174,2565 L178,2565 L178,2561 L181,2561 C181.552,2561 182,2561.552 182,2562.105 L182,2565 Z M182,2559 L166,2559 C164.895,2559 164,2559.895 164,2561 L164,2577 C164,2578.104 164.895,2579 166,2579 L182,2579 C183.105,2579 184,2578.104 184,2577 L184,2561 C184,2559.895 183.105,2559 182,2559 L182,2559 Z"
           id="chess-[#1218]" />
      </g>
    </g>
  </g>
  <path
     style="fill:#ffffff;stroke-width:0.0152091"
     d="M 1.7425967,19.975951 C 1.097693,19.892052 0.52228262,19.482411 0.22264277,18.893878 0.14997075,18.751142 0.0921652,18.588659 0.04261032,18.387833 0.01791861,18.287767 0.01603873,17.789595 0.01133148,10.098859 0.00776642,4.2742336 0.01108953,1.8740563 0.0228636,1.7695796 0.12464414,0.86643437 0.85135495,0.13436533 1.7562551,0.02340751 c 0.1800065,-0.02207221 16.3074829,-0.02207221 16.4874889,0 0.899068,0.11024252 1.622606,0.83378092 1.732849,1.73284759 0.022,0.1794246 0.02208,16.3085499 8.1e-5,16.4839959 -0.08364,0.667007 -0.505792,1.259817 -1.101844,1.547262 -0.153262,0.07391 -0.27311,0.116295 -0.464184,0.164157 l -0.129277,0.03239 -8.220532,0.0023 c -4.5212933,0.0013 -8.2645012,-0.0034 -8.3182403,-0.01041 z M 6,16 v -2 h 2 2 v 2 2 h 2 2 v -2 -2 h 2 2 V 12 10 H 16 14 V 8 6 h 2 2 V 4.4739157 C 18,3.0083077 17.9988,2.9432154 17.97021,2.8313457 17.888312,2.5111338 17.671338,2.2313547 17.39824,2.0938132 17.202005,1.9949819 17.299725,2 15.571384,2 H 14 V 4 6 H 12 10 V 4 2 H 8 6 V 4 6 H 4 2 v 2 2 h 2 2 v 2 2 H 4 2 v 1.624181 c 0,1.771098 -0.0034,1.697442 0.087192,1.886526 0.062216,0.129851 0.2410654,0.302811 0.3876803,0.374911 0.238873,0.117472 0.1456485,0.112006 1.9319714,0.113263 L 6,18 Z"
     id="path1" />
  <path
     style="fill:#ffffff;stroke-width:0.0152091"
     d="M 6,8 V 6 h 2 2 v 2 2 H 8 6 Z"
     id="path2" />
  <path
     style="fill:#ffffff;stroke-width:0.0152091"
     d="m 10,12 v -2 h 2 2 v 2 2 h -2 -2 z"
     id="path3" />
</svg>
