<?xml version="1.0" encoding="UTF-8" standalone="no"?>
<!-- Uploaded to: SVG Repo, www.svgrepo.com, Generator: SVG Repo Mixer Tools -->

<svg
   viewBox="0 0 20 20"
   version="1.1"
   id="svg1"
   sodipodi:docname="google-pinger.svg"
   inkscape:version="1.3.2 (091e20e, 2023-11-25, custom)"
   xmlns:inkscape="http://www.inkscape.org/namespaces/inkscape"
   xmlns:sodipodi="http://sodipodi.sourceforge.net/DTD/sodipodi-0.dtd"
   xmlns="http://www.w3.org/2000/svg"
   xmlns:svg="http://www.w3.org/2000/svg">
  <sodipodi:namedview
     id="namedview1"
     pagecolor="#505050"
     bordercolor="#ffffff"
     borderopacity="1"
     inkscape:showpageshadow="0"
     inkscape:pageopacity="0"
     inkscape:pagecheckerboard="1"
     inkscape:deskcolor="#505050"
     inkscape:zoom="65.75"
     inkscape:cx="9.9923954"
     inkscape:cy="10"
     inkscape:window-width="2560"
     inkscape:window-height="1571"
     inkscape:window-x="-9"
     inkscape:window-y="-9"
     inkscape:window-maximized="1"
     inkscape:current-layer="svg1" />
  <title
     id="title1">google [#178]</title>
  <desc
     id="desc1">Created with Sketch.</desc>
  <defs
     id="defs1" />
  <g
     id="Page-1"
     stroke="none"
     stroke-width="1"
     fill="none"
     fill-rule="evenodd">
    <g
       id="Dribbble-Light-Preview"
       transform="translate(-300.000000, -7399.000000)"
       fill="#000000">
      <g
         id="icons"
         transform="translate(56.000000, 160.000000)">
        <path
           d="M263.821537,7247.00386 L254.211298,7247.00386 C254.211298,7248.0033 254.211298,7250.00218 254.205172,7251.00161 L259.774046,7251.00161 C259.560644,7252.00105 258.804036,7253.40026 257.734984,7254.10487 C257.733963,7254.10387 257.732942,7254.11086 257.7309,7254.10986 C256.309581,7255.04834 254.43389,7255.26122 253.041161,7254.98137 C250.85813,7254.54762 249.130492,7252.96451 248.429023,7250.95364 C248.433107,7250.95064 248.43617,7250.92266 248.439233,7250.92066 C248.000176,7249.67336 248.000176,7248.0033 248.439233,7247.00386 L248.438212,7247.00386 C249.003881,7245.1669 250.783592,7243.49084 252.969687,7243.0321 C254.727956,7242.65931 256.71188,7243.06308 258.170978,7244.42831 C258.36498,7244.23842 260.856372,7241.80579 261.043226,7241.6079 C256.0584,7237.09344 248.076756,7238.68155 245.090149,7244.51127 L245.089128,7244.51127 C245.089128,7244.51127 245.090149,7244.51127 245.084023,7244.52226 L245.084023,7244.52226 C243.606545,7247.38565 243.667809,7250.75975 245.094233,7253.48622 C245.090149,7253.48921 245.087086,7253.49121 245.084023,7253.49421 C246.376687,7256.0028 248.729215,7257.92672 251.563684,7258.6593 C254.574796,7259.44886 258.406843,7258.90916 260.973794,7256.58747 C260.974815,7256.58847 260.975836,7256.58947 260.976857,7256.59047 C263.15172,7254.63157 264.505648,7251.29445 263.821537,7247.00386"
           id="google-[#178]" />
      </g>
    </g>
  </g>
  <path
     style="fill:#ffffff;stroke-width:0.0152091"
     d="M 9.6730038,19.97727 C 7.3290335,19.836037 5.2606885,19.017652 3.5226865,17.543766 2.6266301,16.783878 1.8416941,15.833793 1.267167,14.813688 1.1587803,14.621242 0.92456789,14.138688 0.80443998,13.86032 -0.05364977,11.871899 -0.22264166,9.6347997 0.32613167,7.5285171 0.81114823,5.6669434 1.8716502,3.9327711 3.3127413,2.6447014 5.6038573,0.59686625 8.7179351,-0.33071094 11.779468,0.12275334 13.419139,0.3656162 14.97906,1.0171916 16.307883,2.0142627 c 0.233322,0.175071 0.477411,0.3735784 0.643769,0.5235475 l 0.08201,0.073932 -0.311741,0.3062962 c -0.960386,0.9436107 -2.434258,2.384653 -2.48988,2.4344193 L 14.167504,5.4102 14.019113,5.2816429 C 13.296392,4.6555194 12.432434,4.2283527 11.475285,4.0238989 11.065406,3.9363457 10.711953,3.9015069 10.231507,3.9013036 9.8135518,3.9011265 9.5405827,3.9229927 9.1793799,3.9855843 7.2913652,4.3127522 5.5776475,5.5714443 4.7370041,7.2484221 4.5282856,7.664789 4.2956053,8.3166599 4.2135811,8.7148289 4.0245285,9.6325462 4.0866617,10.840059 4.3684221,11.724047 c 0.029712,0.09322 0.055908,0.191413 0.058211,0.218209 0.00561,0.0652 0.1549571,0.436435 0.2741036,0.681318 0.3236665,0.665235 0.7452321,1.242847 1.2909597,1.768821 0.9616039,0.926797 2.1799937,1.505024 3.5216111,1.671296 0.311967,0.03866 1.1584145,0.03864 1.4752845,-3.6e-5 1.16198,-0.141836 2.162484,-0.509197 2.920152,-1.072208 0.202859,-0.150741 0.606121,-0.546674 0.777438,-0.76331 0.394549,-0.498918 0.71167,-1.061867 0.925863,-1.643582 0.05007,-0.135994 0.167422,-0.536525 0.167422,-0.571446 0,-0.0174 -0.444801,-0.02071 -2.78327,-0.02071 h -2.78327 V 9.9999763 8.007557 l 4.802145,0.00383 4.802145,0.00383 0.04021,0.2889734 c 0.144452,1.0380243 0.171678,2.0692496 0.08031,3.0418256 -0.26818,2.854731 -1.572472,5.278768 -3.65308,6.789271 -1.445739,1.049594 -3.19394,1.665936 -5.182001,1.826955 -0.265733,0.02152 -1.1650305,0.03098 -1.4296577,0.01504 z"
     id="path1" />
</svg>
