<?xml version="1.0" encoding="UTF-8" standalone="no"?>
<svg
   version="1.1"
   id="Layer_1"
   x="0px"
   y="0px"
   width="100%"
   viewBox="0 0 640 640"
   enable-background="new 0 0 640 640"
   xml:space="preserve"
   sodipodi:docname="laputa_robot_color.svg"
   inkscape:version="1.3.2 (091e20e, 2023-11-25, custom)"
   xmlns:inkscape="http://www.inkscape.org/namespaces/inkscape"
   xmlns:sodipodi="http://sodipodi.sourceforge.net/DTD/sodipodi-0.dtd"
   xmlns="http://www.w3.org/2000/svg"
   xmlns:svg="http://www.w3.org/2000/svg"><defs
   id="defs19"><filter
     style="color-interpolation-filters:sRGB;"
     inkscape:label="Greyscale"
     id="filter483"
     x="0"
     y="0"
     width="1"
     height="1"><feColorMatrix
       values="1.35647 0.72 -1.72 0.0315457 0 1.35647 0.72 -1.72 0.0315457 0 1.35647 0.72 -1.72 0.0315457 0 0 0 0 1 0 "
       id="feColorMatrix483"
       result="fbSourceGraphic" /><feColorMatrix
       result="fbSourceGraphicAlpha"
       in="fbSourceGraphic"
       values="0 0 0 -1 0 0 0 0 -1 0 0 0 0 -1 0 0 0 0 1 0"
       id="feColorMatrix500" /><feColorMatrix
       id="feColorMatrix501"
       values="1.35647 0.72 -1.72 0.0315457 0 1.35647 0.72 -1.72 0.0315457 0 1.35647 0.72 -1.72 0.0315457 0 0 0 0 1 0 "
       in="fbSourceGraphic"
       result="fbSourceGraphic" /><feColorMatrix
       result="fbSourceGraphicAlpha"
       in="fbSourceGraphic"
       values="0 0 0 -1 0 0 0 0 -1 0 0 0 0 -1 0 0 0 0 1 0"
       id="feColorMatrix1293" /><feColorMatrix
       id="feColorMatrix1294"
       values="1.36 0.72 -1.32 0.03 0 1.36 0.72 -1.32 0.03 0 1.36 0.72 -1.32 0.03 0 0 0 0 1 0 "
       in="fbSourceGraphic"
       result="fbSourceGraphic" /><feColorMatrix
       result="fbSourceGraphicAlpha"
       in="fbSourceGraphic"
       values="0 0 0 -1 0 0 0 0 -1 0 0 0 0 -1 0 0 0 0 1 0"
       id="feColorMatrix1327" /><feColorMatrix
       id="feColorMatrix1328"
       values="1.36 0.72 -1.32 0.03 0 1.36 0.72 -1.32 0.03 0 1.36 0.72 -1.32 0.03 0 0 0 0 1 0 "
       in="fbSourceGraphic" /></filter><filter
     style="color-interpolation-filters:sRGB;"
     inkscape:label="Greyscale"
     id="filter484"
     x="0"
     y="0"
     width="1"
     height="1"><feColorMatrix
       values="1.35647 0.72 -1.72 0.0315457 0 1.35647 0.72 -1.72 0.0315457 0 1.35647 0.72 -1.72 0.0315457 0 0 0 0 1 0 "
       id="feColorMatrix484"
       result="fbSourceGraphic" /><feColorMatrix
       result="fbSourceGraphicAlpha"
       in="fbSourceGraphic"
       values="0 0 0 -1 0 0 0 0 -1 0 0 0 0 -1 0 0 0 0 1 0"
       id="feColorMatrix502" /><feColorMatrix
       id="feColorMatrix503"
       values="1.35647 0.72 -1.72 0.0315457 0 1.35647 0.72 -1.72 0.0315457 0 1.35647 0.72 -1.72 0.0315457 0 0 0 0 1 0 "
       in="fbSourceGraphic"
       result="fbSourceGraphic" /><feColorMatrix
       result="fbSourceGraphicAlpha"
       in="fbSourceGraphic"
       values="0 0 0 -1 0 0 0 0 -1 0 0 0 0 -1 0 0 0 0 1 0"
       id="feColorMatrix1295" /><feColorMatrix
       id="feColorMatrix1296"
       values="1.36 0.72 -1.32 0.03 0 1.36 0.72 -1.32 0.03 0 1.36 0.72 -1.32 0.03 0 0 0 0 1 0 "
       in="fbSourceGraphic"
       result="fbSourceGraphic" /><feColorMatrix
       result="fbSourceGraphicAlpha"
       in="fbSourceGraphic"
       values="0 0 0 -1 0 0 0 0 -1 0 0 0 0 -1 0 0 0 0 1 0"
       id="feColorMatrix1329" /><feColorMatrix
       id="feColorMatrix1330"
       values="1.36 0.72 -1.32 0.03 0 1.36 0.72 -1.32 0.03 0 1.36 0.72 -1.32 0.03 0 0 0 0 1 0 "
       in="fbSourceGraphic" /></filter><filter
     style="color-interpolation-filters:sRGB;"
     inkscape:label="Greyscale"
     id="filter485"
     x="0"
     y="0"
     width="1"
     height="1"><feColorMatrix
       values="1.35647 0.72 -1.72 0.0315457 0 1.35647 0.72 -1.72 0.0315457 0 1.35647 0.72 -1.72 0.0315457 0 0 0 0 1 0 "
       id="feColorMatrix485"
       result="fbSourceGraphic" /><feColorMatrix
       result="fbSourceGraphicAlpha"
       in="fbSourceGraphic"
       values="0 0 0 -1 0 0 0 0 -1 0 0 0 0 -1 0 0 0 0 1 0"
       id="feColorMatrix504" /><feColorMatrix
       id="feColorMatrix505"
       values="1.35647 0.72 -1.72 0.0315457 0 1.35647 0.72 -1.72 0.0315457 0 1.35647 0.72 -1.72 0.0315457 0 0 0 0 1 0 "
       in="fbSourceGraphic"
       result="fbSourceGraphic" /><feColorMatrix
       result="fbSourceGraphicAlpha"
       in="fbSourceGraphic"
       values="0 0 0 -1 0 0 0 0 -1 0 0 0 0 -1 0 0 0 0 1 0"
       id="feColorMatrix1297" /><feColorMatrix
       id="feColorMatrix1298"
       values="1.36 0.72 -1.32 0.03 0 1.36 0.72 -1.32 0.03 0 1.36 0.72 -1.32 0.03 0 0 0 0 1 0 "
       in="fbSourceGraphic"
       result="fbSourceGraphic" /><feColorMatrix
       result="fbSourceGraphicAlpha"
       in="fbSourceGraphic"
       values="0 0 0 -1 0 0 0 0 -1 0 0 0 0 -1 0 0 0 0 1 0"
       id="feColorMatrix1331" /><feColorMatrix
       id="feColorMatrix1332"
       values="1.36 0.72 -1.32 0.03 0 1.36 0.72 -1.32 0.03 0 1.36 0.72 -1.32 0.03 0 0 0 0 1 0 "
       in="fbSourceGraphic" /></filter><filter
     style="color-interpolation-filters:sRGB;"
     inkscape:label="Greyscale"
     id="filter486"
     x="0"
     y="0"
     width="1"
     height="1"><feColorMatrix
       values="1.35647 0.72 -1.72 0.0315457 0 1.35647 0.72 -1.72 0.0315457 0 1.35647 0.72 -1.72 0.0315457 0 0 0 0 1 0 "
       id="feColorMatrix486"
       result="fbSourceGraphic" /><feColorMatrix
       result="fbSourceGraphicAlpha"
       in="fbSourceGraphic"
       values="0 0 0 -1 0 0 0 0 -1 0 0 0 0 -1 0 0 0 0 1 0"
       id="feColorMatrix506" /><feColorMatrix
       id="feColorMatrix507"
       values="1.35647 0.72 -1.72 0.0315457 0 1.35647 0.72 -1.72 0.0315457 0 1.35647 0.72 -1.72 0.0315457 0 0 0 0 1 0 "
       in="fbSourceGraphic"
       result="fbSourceGraphic" /><feColorMatrix
       result="fbSourceGraphicAlpha"
       in="fbSourceGraphic"
       values="0 0 0 -1 0 0 0 0 -1 0 0 0 0 -1 0 0 0 0 1 0"
       id="feColorMatrix1299" /><feColorMatrix
       id="feColorMatrix1300"
       values="1.36 0.72 -1.32 0.03 0 1.36 0.72 -1.32 0.03 0 1.36 0.72 -1.32 0.03 0 0 0 0 1 0 "
       in="fbSourceGraphic"
       result="fbSourceGraphic" /><feColorMatrix
       result="fbSourceGraphicAlpha"
       in="fbSourceGraphic"
       values="0 0 0 -1 0 0 0 0 -1 0 0 0 0 -1 0 0 0 0 1 0"
       id="feColorMatrix1333" /><feColorMatrix
       id="feColorMatrix1334"
       values="1.36 0.72 -1.32 0.03 0 1.36 0.72 -1.32 0.03 0 1.36 0.72 -1.32 0.03 0 0 0 0 1 0 "
       in="fbSourceGraphic" /></filter><filter
     style="color-interpolation-filters:sRGB;"
     inkscape:label="Greyscale"
     id="filter487"
     x="0"
     y="0"
     width="1"
     height="1"><feColorMatrix
       values="1.35647 0.72 -1.72 0.0315457 0 1.35647 0.72 -1.72 0.0315457 0 1.35647 0.72 -1.72 0.0315457 0 0 0 0 1 0 "
       id="feColorMatrix487"
       result="fbSourceGraphic" /><feColorMatrix
       result="fbSourceGraphicAlpha"
       in="fbSourceGraphic"
       values="0 0 0 -1 0 0 0 0 -1 0 0 0 0 -1 0 0 0 0 1 0"
       id="feColorMatrix508" /><feColorMatrix
       id="feColorMatrix509"
       values="1.35647 0.72 -1.72 0.0315457 0 1.35647 0.72 -1.72 0.0315457 0 1.35647 0.72 -1.72 0.0315457 0 0 0 0 1 0 "
       in="fbSourceGraphic"
       result="fbSourceGraphic" /><feColorMatrix
       result="fbSourceGraphicAlpha"
       in="fbSourceGraphic"
       values="0 0 0 -1 0 0 0 0 -1 0 0 0 0 -1 0 0 0 0 1 0"
       id="feColorMatrix1301" /><feColorMatrix
       id="feColorMatrix1302"
       values="1.36 0.72 -1.32 0.03 0 1.36 0.72 -1.32 0.03 0 1.36 0.72 -1.32 0.03 0 0 0 0 1 0 "
       in="fbSourceGraphic"
       result="fbSourceGraphic" /><feColorMatrix
       result="fbSourceGraphicAlpha"
       in="fbSourceGraphic"
       values="0 0 0 -1 0 0 0 0 -1 0 0 0 0 -1 0 0 0 0 1 0"
       id="feColorMatrix1335" /><feColorMatrix
       id="feColorMatrix1336"
       values="1.36 0.72 -1.32 0.03 0 1.36 0.72 -1.32 0.03 0 1.36 0.72 -1.32 0.03 0 0 0 0 1 0 "
       in="fbSourceGraphic" /></filter><filter
     style="color-interpolation-filters:sRGB;"
     inkscape:label="Greyscale"
     id="filter488"
     x="0"
     y="0"
     width="1"
     height="1"><feColorMatrix
       values="1.35647 0.72 -1.72 0.0315457 0 1.35647 0.72 -1.72 0.0315457 0 1.35647 0.72 -1.72 0.0315457 0 0 0 0 1 0 "
       id="feColorMatrix488"
       result="fbSourceGraphic" /><feColorMatrix
       result="fbSourceGraphicAlpha"
       in="fbSourceGraphic"
       values="0 0 0 -1 0 0 0 0 -1 0 0 0 0 -1 0 0 0 0 1 0"
       id="feColorMatrix510" /><feColorMatrix
       id="feColorMatrix511"
       values="1.35647 0.72 -1.72 0.0315457 0 1.35647 0.72 -1.72 0.0315457 0 1.35647 0.72 -1.72 0.0315457 0 0 0 0 1 0 "
       in="fbSourceGraphic"
       result="fbSourceGraphic" /><feColorMatrix
       result="fbSourceGraphicAlpha"
       in="fbSourceGraphic"
       values="0 0 0 -1 0 0 0 0 -1 0 0 0 0 -1 0 0 0 0 1 0"
       id="feColorMatrix1303" /><feColorMatrix
       id="feColorMatrix1304"
       values="1.36 0.72 -1.32 0.03 0 1.36 0.72 -1.32 0.03 0 1.36 0.72 -1.32 0.03 0 0 0 0 1 0 "
       in="fbSourceGraphic"
       result="fbSourceGraphic" /><feColorMatrix
       result="fbSourceGraphicAlpha"
       in="fbSourceGraphic"
       values="0 0 0 -1 0 0 0 0 -1 0 0 0 0 -1 0 0 0 0 1 0"
       id="feColorMatrix1337" /><feColorMatrix
       id="feColorMatrix1338"
       values="1.36 0.72 -1.32 0.03 0 1.36 0.72 -1.32 0.03 0 1.36 0.72 -1.32 0.03 0 0 0 0 1 0 "
       in="fbSourceGraphic" /></filter><filter
     style="color-interpolation-filters:sRGB;"
     inkscape:label="Greyscale"
     id="filter489"
     x="0"
     y="0"
     width="1"
     height="1"><feColorMatrix
       values="1.35647 0.72 -1.72 0.0315457 0 1.35647 0.72 -1.72 0.0315457 0 1.35647 0.72 -1.72 0.0315457 0 0 0 0 1 0 "
       id="feColorMatrix489"
       result="fbSourceGraphic" /><feColorMatrix
       result="fbSourceGraphicAlpha"
       in="fbSourceGraphic"
       values="0 0 0 -1 0 0 0 0 -1 0 0 0 0 -1 0 0 0 0 1 0"
       id="feColorMatrix512" /><feColorMatrix
       id="feColorMatrix513"
       values="1.35647 0.72 -1.72 0.0315457 0 1.35647 0.72 -1.72 0.0315457 0 1.35647 0.72 -1.72 0.0315457 0 0 0 0 1 0 "
       in="fbSourceGraphic"
       result="fbSourceGraphic" /><feColorMatrix
       result="fbSourceGraphicAlpha"
       in="fbSourceGraphic"
       values="0 0 0 -1 0 0 0 0 -1 0 0 0 0 -1 0 0 0 0 1 0"
       id="feColorMatrix1305" /><feColorMatrix
       id="feColorMatrix1306"
       values="1.36 0.72 -1.32 0.03 0 1.36 0.72 -1.32 0.03 0 1.36 0.72 -1.32 0.03 0 0 0 0 1 0 "
       in="fbSourceGraphic"
       result="fbSourceGraphic" /><feColorMatrix
       result="fbSourceGraphicAlpha"
       in="fbSourceGraphic"
       values="0 0 0 -1 0 0 0 0 -1 0 0 0 0 -1 0 0 0 0 1 0"
       id="feColorMatrix1339" /><feColorMatrix
       id="feColorMatrix1340"
       values="1.36 0.72 -1.32 0.03 0 1.36 0.72 -1.32 0.03 0 1.36 0.72 -1.32 0.03 0 0 0 0 1 0 "
       in="fbSourceGraphic" /></filter><filter
     style="color-interpolation-filters:sRGB;"
     inkscape:label="Greyscale"
     id="filter490"
     x="0"
     y="0"
     width="1"
     height="1"><feColorMatrix
       values="1.35647 0.72 -1.72 0.0315457 0 1.35647 0.72 -1.72 0.0315457 0 1.35647 0.72 -1.72 0.0315457 0 0 0 0 1 0 "
       id="feColorMatrix490"
       result="fbSourceGraphic" /><feColorMatrix
       result="fbSourceGraphicAlpha"
       in="fbSourceGraphic"
       values="0 0 0 -1 0 0 0 0 -1 0 0 0 0 -1 0 0 0 0 1 0"
       id="feColorMatrix514" /><feColorMatrix
       id="feColorMatrix515"
       values="1.35647 0.72 -1.72 0.0315457 0 1.35647 0.72 -1.72 0.0315457 0 1.35647 0.72 -1.72 0.0315457 0 0 0 0 1 0 "
       in="fbSourceGraphic"
       result="fbSourceGraphic" /><feColorMatrix
       result="fbSourceGraphicAlpha"
       in="fbSourceGraphic"
       values="0 0 0 -1 0 0 0 0 -1 0 0 0 0 -1 0 0 0 0 1 0"
       id="feColorMatrix1307" /><feColorMatrix
       id="feColorMatrix1308"
       values="1.36 0.72 -1.32 0.03 0 1.36 0.72 -1.32 0.03 0 1.36 0.72 -1.32 0.03 0 0 0 0 1 0 "
       in="fbSourceGraphic"
       result="fbSourceGraphic" /><feColorMatrix
       result="fbSourceGraphicAlpha"
       in="fbSourceGraphic"
       values="0 0 0 -1 0 0 0 0 -1 0 0 0 0 -1 0 0 0 0 1 0"
       id="feColorMatrix1341" /><feColorMatrix
       id="feColorMatrix1342"
       values="1.36 0.72 -1.32 0.03 0 1.36 0.72 -1.32 0.03 0 1.36 0.72 -1.32 0.03 0 0 0 0 1 0 "
       in="fbSourceGraphic" /></filter><filter
     style="color-interpolation-filters:sRGB;"
     inkscape:label="Greyscale"
     id="filter491"
     x="0"
     y="0"
     width="1"
     height="1"><feColorMatrix
       values="1.35647 0.72 -1.72 0.0315457 0 1.35647 0.72 -1.72 0.0315457 0 1.35647 0.72 -1.72 0.0315457 0 0 0 0 1 0 "
       id="feColorMatrix491"
       result="fbSourceGraphic" /><feColorMatrix
       result="fbSourceGraphicAlpha"
       in="fbSourceGraphic"
       values="0 0 0 -1 0 0 0 0 -1 0 0 0 0 -1 0 0 0 0 1 0"
       id="feColorMatrix516" /><feColorMatrix
       id="feColorMatrix517"
       values="1.35647 0.72 -1.72 0.0315457 0 1.35647 0.72 -1.72 0.0315457 0 1.35647 0.72 -1.72 0.0315457 0 0 0 0 1 0 "
       in="fbSourceGraphic"
       result="fbSourceGraphic" /><feColorMatrix
       result="fbSourceGraphicAlpha"
       in="fbSourceGraphic"
       values="0 0 0 -1 0 0 0 0 -1 0 0 0 0 -1 0 0 0 0 1 0"
       id="feColorMatrix1309" /><feColorMatrix
       id="feColorMatrix1310"
       values="1.36 0.72 -1.32 0.03 0 1.36 0.72 -1.32 0.03 0 1.36 0.72 -1.32 0.03 0 0 0 0 1 0 "
       in="fbSourceGraphic"
       result="fbSourceGraphic" /><feColorMatrix
       result="fbSourceGraphicAlpha"
       in="fbSourceGraphic"
       values="0 0 0 -1 0 0 0 0 -1 0 0 0 0 -1 0 0 0 0 1 0"
       id="feColorMatrix1343" /><feColorMatrix
       id="feColorMatrix1344"
       values="1.36 0.72 -1.32 0.03 0 1.36 0.72 -1.32 0.03 0 1.36 0.72 -1.32 0.03 0 0 0 0 1 0 "
       in="fbSourceGraphic" /></filter><filter
     style="color-interpolation-filters:sRGB;"
     inkscape:label="Greyscale"
     id="filter492"
     x="0"
     y="0"
     width="1"
     height="1"><feColorMatrix
       values="1.35647 0.72 -1.72 0.0315457 0 1.35647 0.72 -1.72 0.0315457 0 1.35647 0.72 -1.72 0.0315457 0 0 0 0 1 0 "
       id="feColorMatrix492"
       result="fbSourceGraphic" /><feColorMatrix
       result="fbSourceGraphicAlpha"
       in="fbSourceGraphic"
       values="0 0 0 -1 0 0 0 0 -1 0 0 0 0 -1 0 0 0 0 1 0"
       id="feColorMatrix518" /><feColorMatrix
       id="feColorMatrix519"
       values="1.35647 0.72 -1.72 0.0315457 0 1.35647 0.72 -1.72 0.0315457 0 1.35647 0.72 -1.72 0.0315457 0 0 0 0 1 0 "
       in="fbSourceGraphic"
       result="fbSourceGraphic" /><feColorMatrix
       result="fbSourceGraphicAlpha"
       in="fbSourceGraphic"
       values="0 0 0 -1 0 0 0 0 -1 0 0 0 0 -1 0 0 0 0 1 0"
       id="feColorMatrix1311" /><feColorMatrix
       id="feColorMatrix1312"
       values="1.36 0.72 -1.32 0.03 0 1.36 0.72 -1.32 0.03 0 1.36 0.72 -1.32 0.03 0 0 0 0 1 0 "
       in="fbSourceGraphic"
       result="fbSourceGraphic" /><feColorMatrix
       result="fbSourceGraphicAlpha"
       in="fbSourceGraphic"
       values="0 0 0 -1 0 0 0 0 -1 0 0 0 0 -1 0 0 0 0 1 0"
       id="feColorMatrix1345" /><feColorMatrix
       id="feColorMatrix1346"
       values="1.36 0.72 -1.32 0.03 0 1.36 0.72 -1.32 0.03 0 1.36 0.72 -1.32 0.03 0 0 0 0 1 0 "
       in="fbSourceGraphic" /></filter><filter
     style="color-interpolation-filters:sRGB;"
     inkscape:label="Greyscale"
     id="filter493"
     x="0"
     y="0"
     width="1"
     height="1"><feColorMatrix
       values="1.35647 0.72 -1.72 0.0315457 0 1.35647 0.72 -1.72 0.0315457 0 1.35647 0.72 -1.72 0.0315457 0 0 0 0 1 0 "
       id="feColorMatrix493"
       result="fbSourceGraphic" /><feColorMatrix
       result="fbSourceGraphicAlpha"
       in="fbSourceGraphic"
       values="0 0 0 -1 0 0 0 0 -1 0 0 0 0 -1 0 0 0 0 1 0"
       id="feColorMatrix520" /><feColorMatrix
       id="feColorMatrix521"
       values="1.35647 0.72 -1.72 0.0315457 0 1.35647 0.72 -1.72 0.0315457 0 1.35647 0.72 -1.72 0.0315457 0 0 0 0 1 0 "
       in="fbSourceGraphic"
       result="fbSourceGraphic" /><feColorMatrix
       result="fbSourceGraphicAlpha"
       in="fbSourceGraphic"
       values="0 0 0 -1 0 0 0 0 -1 0 0 0 0 -1 0 0 0 0 1 0"
       id="feColorMatrix1313" /><feColorMatrix
       id="feColorMatrix1314"
       values="1.36 0.72 -1.32 0.03 0 1.36 0.72 -1.32 0.03 0 1.36 0.72 -1.32 0.03 0 0 0 0 1 0 "
       in="fbSourceGraphic"
       result="fbSourceGraphic" /><feColorMatrix
       result="fbSourceGraphicAlpha"
       in="fbSourceGraphic"
       values="0 0 0 -1 0 0 0 0 -1 0 0 0 0 -1 0 0 0 0 1 0"
       id="feColorMatrix1347" /><feColorMatrix
       id="feColorMatrix1348"
       values="1.36 0.72 -1.32 0.03 0 1.36 0.72 -1.32 0.03 0 1.36 0.72 -1.32 0.03 0 0 0 0 1 0 "
       in="fbSourceGraphic" /></filter><filter
     style="color-interpolation-filters:sRGB;"
     inkscape:label="Greyscale"
     id="filter494"
     x="0"
     y="0"
     width="1"
     height="1"><feColorMatrix
       values="1.35647 0.72 -1.72 0.0315457 0 1.35647 0.72 -1.72 0.0315457 0 1.35647 0.72 -1.72 0.0315457 0 0 0 0 1 0 "
       id="feColorMatrix494"
       result="fbSourceGraphic" /><feColorMatrix
       result="fbSourceGraphicAlpha"
       in="fbSourceGraphic"
       values="0 0 0 -1 0 0 0 0 -1 0 0 0 0 -1 0 0 0 0 1 0"
       id="feColorMatrix522" /><feColorMatrix
       id="feColorMatrix523"
       values="1.35647 0.72 -1.72 0.0315457 0 1.35647 0.72 -1.72 0.0315457 0 1.35647 0.72 -1.72 0.0315457 0 0 0 0 1 0 "
       in="fbSourceGraphic"
       result="fbSourceGraphic" /><feColorMatrix
       result="fbSourceGraphicAlpha"
       in="fbSourceGraphic"
       values="0 0 0 -1 0 0 0 0 -1 0 0 0 0 -1 0 0 0 0 1 0"
       id="feColorMatrix1315" /><feColorMatrix
       id="feColorMatrix1316"
       values="1.36 0.72 -1.32 0.03 0 1.36 0.72 -1.32 0.03 0 1.36 0.72 -1.32 0.03 0 0 0 0 1 0 "
       in="fbSourceGraphic"
       result="fbSourceGraphic" /><feColorMatrix
       result="fbSourceGraphicAlpha"
       in="fbSourceGraphic"
       values="0 0 0 -1 0 0 0 0 -1 0 0 0 0 -1 0 0 0 0 1 0"
       id="feColorMatrix1349" /><feColorMatrix
       id="feColorMatrix1350"
       values="1.36 0.72 -1.32 0.03 0 1.36 0.72 -1.32 0.03 0 1.36 0.72 -1.32 0.03 0 0 0 0 1 0 "
       in="fbSourceGraphic" /></filter><filter
     style="color-interpolation-filters:sRGB;"
     inkscape:label="Greyscale"
     id="filter495"
     x="0"
     y="0"
     width="1"
     height="1"><feColorMatrix
       values="1.35647 0.72 -1.72 0.0315457 0 1.35647 0.72 -1.72 0.0315457 0 1.35647 0.72 -1.72 0.0315457 0 0 0 0 1 0 "
       id="feColorMatrix495"
       result="fbSourceGraphic" /><feColorMatrix
       result="fbSourceGraphicAlpha"
       in="fbSourceGraphic"
       values="0 0 0 -1 0 0 0 0 -1 0 0 0 0 -1 0 0 0 0 1 0"
       id="feColorMatrix524" /><feColorMatrix
       id="feColorMatrix525"
       values="1.35647 0.72 -1.72 0.0315457 0 1.35647 0.72 -1.72 0.0315457 0 1.35647 0.72 -1.72 0.0315457 0 0 0 0 1 0 "
       in="fbSourceGraphic"
       result="fbSourceGraphic" /><feColorMatrix
       result="fbSourceGraphicAlpha"
       in="fbSourceGraphic"
       values="0 0 0 -1 0 0 0 0 -1 0 0 0 0 -1 0 0 0 0 1 0"
       id="feColorMatrix1317" /><feColorMatrix
       id="feColorMatrix1318"
       values="1.36 0.72 -1.32 0.03 0 1.36 0.72 -1.32 0.03 0 1.36 0.72 -1.32 0.03 0 0 0 0 1 0 "
       in="fbSourceGraphic"
       result="fbSourceGraphic" /><feColorMatrix
       result="fbSourceGraphicAlpha"
       in="fbSourceGraphic"
       values="0 0 0 -1 0 0 0 0 -1 0 0 0 0 -1 0 0 0 0 1 0"
       id="feColorMatrix1351" /><feColorMatrix
       id="feColorMatrix1352"
       values="1.36 0.72 -1.32 0.03 0 1.36 0.72 -1.32 0.03 0 1.36 0.72 -1.32 0.03 0 0 0 0 1 0 "
       in="fbSourceGraphic" /></filter><filter
     style="color-interpolation-filters:sRGB;"
     inkscape:label="Greyscale"
     id="filter496"
     x="0"
     y="0"
     width="1"
     height="1"><feColorMatrix
       values="1.35647 0.72 -1.72 0.0315457 0 1.35647 0.72 -1.72 0.0315457 0 1.35647 0.72 -1.72 0.0315457 0 0 0 0 1 0 "
       id="feColorMatrix496"
       result="fbSourceGraphic" /><feColorMatrix
       result="fbSourceGraphicAlpha"
       in="fbSourceGraphic"
       values="0 0 0 -1 0 0 0 0 -1 0 0 0 0 -1 0 0 0 0 1 0"
       id="feColorMatrix526" /><feColorMatrix
       id="feColorMatrix527"
       values="1.35647 0.72 -1.72 0.0315457 0 1.35647 0.72 -1.72 0.0315457 0 1.35647 0.72 -1.72 0.0315457 0 0 0 0 1 0 "
       in="fbSourceGraphic"
       result="fbSourceGraphic" /><feColorMatrix
       result="fbSourceGraphicAlpha"
       in="fbSourceGraphic"
       values="0 0 0 -1 0 0 0 0 -1 0 0 0 0 -1 0 0 0 0 1 0"
       id="feColorMatrix1319" /><feColorMatrix
       id="feColorMatrix1320"
       values="1.36 0.72 -1.32 0.03 0 1.36 0.72 -1.32 0.03 0 1.36 0.72 -1.32 0.03 0 0 0 0 1 0 "
       in="fbSourceGraphic"
       result="fbSourceGraphic" /><feColorMatrix
       result="fbSourceGraphicAlpha"
       in="fbSourceGraphic"
       values="0 0 0 -1 0 0 0 0 -1 0 0 0 0 -1 0 0 0 0 1 0"
       id="feColorMatrix1353" /><feColorMatrix
       id="feColorMatrix1354"
       values="1.36 0.72 -1.32 0.03 0 1.36 0.72 -1.32 0.03 0 1.36 0.72 -1.32 0.03 0 0 0 0 1 0 "
       in="fbSourceGraphic" /></filter><filter
     style="color-interpolation-filters:sRGB;"
     inkscape:label="Greyscale"
     id="filter497"
     x="0"
     y="0"
     width="1"
     height="1"><feColorMatrix
       values="1.35647 0.72 -1.72 0.0315457 0 1.35647 0.72 -1.72 0.0315457 0 1.35647 0.72 -1.72 0.0315457 0 0 0 0 1 0 "
       id="feColorMatrix497"
       result="fbSourceGraphic" /><feColorMatrix
       result="fbSourceGraphicAlpha"
       in="fbSourceGraphic"
       values="0 0 0 -1 0 0 0 0 -1 0 0 0 0 -1 0 0 0 0 1 0"
       id="feColorMatrix528" /><feColorMatrix
       id="feColorMatrix529"
       values="1.35647 0.72 -1.72 0.0315457 0 1.35647 0.72 -1.72 0.0315457 0 1.35647 0.72 -1.72 0.0315457 0 0 0 0 1 0 "
       in="fbSourceGraphic"
       result="fbSourceGraphic" /><feColorMatrix
       result="fbSourceGraphicAlpha"
       in="fbSourceGraphic"
       values="0 0 0 -1 0 0 0 0 -1 0 0 0 0 -1 0 0 0 0 1 0"
       id="feColorMatrix1321" /><feColorMatrix
       id="feColorMatrix1322"
       values="1.36 0.72 -1.32 0.03 0 1.36 0.72 -1.32 0.03 0 1.36 0.72 -1.32 0.03 0 0 0 0 1 0 "
       in="fbSourceGraphic"
       result="fbSourceGraphic" /><feColorMatrix
       result="fbSourceGraphicAlpha"
       in="fbSourceGraphic"
       values="0 0 0 -1 0 0 0 0 -1 0 0 0 0 -1 0 0 0 0 1 0"
       id="feColorMatrix1355" /><feColorMatrix
       id="feColorMatrix1356"
       values="1.36 0.72 -1.32 0.03 0 1.36 0.72 -1.32 0.03 0 1.36 0.72 -1.32 0.03 0 0 0 0 1 0 "
       in="fbSourceGraphic" /></filter><filter
     style="color-interpolation-filters:sRGB;"
     inkscape:label="Greyscale"
     id="filter498"
     x="0"
     y="0"
     width="1"
     height="1"><feColorMatrix
       values="1.35647 0.72 -1.72 0.0315457 0 1.35647 0.72 -1.72 0.0315457 0 1.35647 0.72 -1.72 0.0315457 0 0 0 0 1 0 "
       id="feColorMatrix498"
       result="fbSourceGraphic" /><feColorMatrix
       result="fbSourceGraphicAlpha"
       in="fbSourceGraphic"
       values="0 0 0 -1 0 0 0 0 -1 0 0 0 0 -1 0 0 0 0 1 0"
       id="feColorMatrix530" /><feColorMatrix
       id="feColorMatrix531"
       values="1.35647 0.72 -1.72 0.0315457 0 1.35647 0.72 -1.72 0.0315457 0 1.35647 0.72 -1.72 0.0315457 0 0 0 0 1 0 "
       in="fbSourceGraphic"
       result="fbSourceGraphic" /><feColorMatrix
       result="fbSourceGraphicAlpha"
       in="fbSourceGraphic"
       values="0 0 0 -1 0 0 0 0 -1 0 0 0 0 -1 0 0 0 0 1 0"
       id="feColorMatrix1323" /><feColorMatrix
       id="feColorMatrix1324"
       values="1.36 0.72 -1.32 0.03 0 1.36 0.72 -1.32 0.03 0 1.36 0.72 -1.32 0.03 0 0 0 0 1 0 "
       in="fbSourceGraphic"
       result="fbSourceGraphic" /><feColorMatrix
       result="fbSourceGraphicAlpha"
       in="fbSourceGraphic"
       values="0 0 0 -1 0 0 0 0 -1 0 0 0 0 -1 0 0 0 0 1 0"
       id="feColorMatrix1357" /><feColorMatrix
       id="feColorMatrix1358"
       values="1.36 0.72 -1.32 0.03 0 1.36 0.72 -1.32 0.03 0 1.36 0.72 -1.32 0.03 0 0 0 0 1 0 "
       in="fbSourceGraphic" /></filter><filter
     style="color-interpolation-filters:sRGB;"
     inkscape:label="Greyscale"
     id="filter499"
     x="0"
     y="0"
     width="1"
     height="1"><feColorMatrix
       values="1.35647 0.72 -1.72 0.0315457 0 1.35647 0.72 -1.72 0.0315457 0 1.35647 0.72 -1.72 0.0315457 0 0 0 0 1 0 "
       id="feColorMatrix499"
       result="fbSourceGraphic" /><feColorMatrix
       result="fbSourceGraphicAlpha"
       in="fbSourceGraphic"
       values="0 0 0 -1 0 0 0 0 -1 0 0 0 0 -1 0 0 0 0 1 0"
       id="feColorMatrix532" /><feColorMatrix
       id="feColorMatrix533"
       values="1.35647 0.72 -1.72 0.0315457 0 1.35647 0.72 -1.72 0.0315457 0 1.35647 0.72 -1.72 0.0315457 0 0 0 0 1 0 "
       in="fbSourceGraphic"
       result="fbSourceGraphic" /><feColorMatrix
       result="fbSourceGraphicAlpha"
       in="fbSourceGraphic"
       values="0 0 0 -1 0 0 0 0 -1 0 0 0 0 -1 0 0 0 0 1 0"
       id="feColorMatrix1325" /><feColorMatrix
       id="feColorMatrix1326"
       values="1.36 0.72 -1.32 0.03 0 1.36 0.72 -1.32 0.03 0 1.36 0.72 -1.32 0.03 0 0 0 0 1 0 "
       in="fbSourceGraphic"
       result="fbSourceGraphic" /><feColorMatrix
       result="fbSourceGraphicAlpha"
       in="fbSourceGraphic"
       values="0 0 0 -1 0 0 0 0 -1 0 0 0 0 -1 0 0 0 0 1 0"
       id="feColorMatrix1359" /><feColorMatrix
       id="feColorMatrix1360"
       values="1.36 0.72 -1.32 0.03 0 1.36 0.72 -1.32 0.03 0 1.36 0.72 -1.32 0.03 0 0 0 0 1 0 "
       in="fbSourceGraphic" /></filter></defs><sodipodi:namedview
   id="namedview19"
   pagecolor="#505050"
   bordercolor="#ffffff"
   borderopacity="1"
   inkscape:showpageshadow="0"
   inkscape:pageopacity="0"
   inkscape:pagecheckerboard="1"
   inkscape:deskcolor="#505050"
   inkscape:zoom="16.4375"
   inkscape:cx="-1.3992395"
   inkscape:cy="23.330799"
   inkscape:window-width="2560"
   inkscape:window-height="1571"
   inkscape:window-x="-9"
   inkscape:window-y="-9"
   inkscape:window-maximized="1"
   inkscape:current-layer="Layer_1" />

<path
   fill="#766729"
   opacity="1"
   stroke="none"
   d="m 10.766253,32.138497 c -1.7581892,-0.0014 -3.5170452,0.02542 -5.2742882,-0.01605 -0.87701,-0.0207 -1.7617,-0.109394 -2.623622,-0.270535 -0.95263,-0.178102 -1.695344,-0.751113 -2.124955,-1.622322 -0.22192,-0.450029 -0.33394898,-0.971547 -0.40709194,-1.473665 -0.115106,-0.790173 -0.159802,-1.590872 -0.225511,-2.387845 -0.02898,-0.351474 -0.04343,-0.704551 -0.05218,-1.057207 -0.02176,-0.876489 -0.04508,-1.753084 -0.05178,-2.62976 -0.0083,-1.087218 -0.01141,-2.174719 0.0046,-3.261785 0.0091,-0.616907 0.04672,-1.234338 0.097,-1.849448 0.05647,-0.6909 0.128985,-1.381086 0.217571,-2.068613 0.11305496,-0.877433 0.19517494,-1.764012 0.38827294,-2.624743 0.276727,-1.233512 0.58881,-2.46476 0.986205,-3.6636927 0.304388,-0.918333 0.72795,-1.803441 1.165352,-2.66957 0.403848,-0.799686 0.916831,-1.538879 1.516431,-2.214285 0.718558,-0.809403 1.475711,-1.574392 2.382096,-2.175615 0.908455,-0.602597 1.898614,-1.020294 2.9467222,-1.318144 0.70843,-0.201321 1.418078,-0.389414 2.155652,-0.41229 1.0764,-0.03338 2.15768,-0.105747 3.22952,-0.04054 1.352746,0.08229 2.672953,0.385174 3.942529,0.890701 0.940279,0.374405 1.809412,0.861716 2.616097,1.470422 0.64832,0.489205 1.222715,1.050012 1.760252,1.658568 0.911032,1.031396 1.618384,2.189499 2.192803,3.430714 0.730509,1.5785 1.26188,3.2253197 1.574771,4.9367667 0.214075,1.17092 0.414778,2.345468 0.574071,3.524796 0.102404,0.758108 0.13248,1.527157 0.170373,2.29252 0.04894,0.988552 0.07448,1.978281 0.107859,2.967579 0.01968,0.583363 0.04591,1.166823 0.04848,1.750329 0.0017,0.387912 -0.03319,0.775986 -0.06994,1.204837 -0.02202,0.579123 -0.0258,1.117397 -0.02959,1.655669 8.4e-5,0.197697 0.0049,0.395527 -5.66e-4,0.593068 -0.02604,0.933391 -0.05109,1.863408 -0.344376,2.767956 -0.293299,0.90458 -0.932295,1.448728 -1.770204,1.79476 -0.731631,0.30214 -1.510634,0.386618 -2.293849,0.442183 -0.892506,0.06331 -1.784031,0.140404 -2.676273,0.207622 -0.147204,0.01109 -0.29602,-0.0013 -0.443899,0.0033 -0.539184,0.01682 -1.078503,0.03149 -1.617366,0.05591 -0.660903,0.02995 -1.321091,0.08934 -1.982145,0.09938 -1.124642,0.01708 -2.249717,0.0055 -3.42449,0.0051 -0.921415,6.8e-4 -1.792953,0.0023 -2.66449,0.004 m 6.463552,-4.074986 c 0.603575,0.633954 1.375521,0.599109 1.832526,-0.103207 0.07494,-0.154147 0.149888,-0.308295 0.264907,-0.470038 0.509893,-0.18071 1.026037,-0.345667 1.528532,-0.545026 1.64585,-0.652956 3.163413,-1.497118 4.431683,-2.774277 1.641842,-1.653347 1.995595,-3.643794 1.716463,-5.86364 -0.01205,-0.231628 0.0019,-0.468106 -0.04035,-0.694098 -0.271479,-1.453391 -0.822601,-2.794249 -1.88304,-3.840182 -1.966963,-1.940049 -4.347896,-2.422245 -6.983576,-1.780043 -1.456483,0.354883 -2.719247,1.122604 -3.916076,1.994864 -1.014163,0.739132 -2.045183,1.439329 -3.20947,1.929743 -1.15349,0.485872 -2.3782372,0.711564 -3.5781552,1.029349 -1.337061,0.354107 -2.701482,0.623889 -3.932999,1.300132 -1.394311,0.765638 -2.291636,1.889212 -2.486954,3.496438 -0.03769,0.31018 0.05651,0.636387 0.1018,0.994989 0.137982,0.39072 0.221827,0.812275 0.423657,1.166629 0.73259,1.286215 1.857637,2.137854 3.212334,2.768972 1.183566,0.6152 2.432667,1.02331 3.80304,1.197092 0.644986,0.08744 1.2899742,0.174874 1.9775152,0.274172 0.58419,0.02457 1.168379,0.04913 1.802825,0.08697 0.141226,0.0058 0.283199,0.02405 0.423563,0.01559 1.464111,-0.08826 2.927964,-0.180802 4.418449,-0.26025 0.02481,0.01515 0.04962,0.03029 0.09333,0.07582 z"
   id="path2"
   style="stroke-width:0.0532952;filter:url(#filter499)" />

<path
   fill="#d1cbb5"
   opacity="1"
   stroke="none"
   d="m 28.004423,26.154452 c -0.01673,-0.527443 -0.01294,-1.065717 0.0062,-1.619596 0.01499,0.525851 0.01467,1.067311 -0.0062,1.619596 z"
   id="path4"
   style="stroke-width:0.0532952;filter:url(#filter498)" />
<path
   fill="#bf9961"
   opacity="1"
   stroke="none"
   d="m 17.109916,27.975788 c -1.463924,0.09135 -2.927777,0.183891 -4.391888,0.272152 -0.140364,0.0085 -0.282337,-0.0098 -0.444464,-0.0404 1.217933,-2.833929 2.454353,-5.644115 3.698475,-8.450886 0.167562,-0.378027 0.373907,-0.738864 0.575203,-1.0919 0.118952,0.645504 0.243776,1.268871 0.542254,1.843906 0.860468,1.657734 2.856234,2.60343 4.690024,2.214545 0.65803,-0.139548 1.273766,-0.369854 1.774302,-0.867712 0.460198,-0.256089 0.77474,-0.630356 1.031363,-1.082034 0.05855,-0.06486 0.109765,-0.116336 0.142922,-0.177588 0.496256,-0.916751 0.74474,-1.889799 0.527793,-2.924369 -0.651946,-3.108987 -3.755575,-4.369579 -6.169011,-3.203236 -0.326488,0.157781 -0.640053,0.342307 -0.963809,0.493135 0.06998,-0.226892 0.141185,-0.433604 0.218979,-0.637803 0.153123,-0.401936 0.309904,-0.802479 0.486307,-1.20887 0.700226,-0.213406 1.398481,-0.244452 2.100804,-0.220366 2.402165,0.08238 4.21727,1.135427 5.292779,3.310911 0.330301,0.668118 0.504821,1.413254 0.750674,2.123123 0.310425,2.198774 -0.04333,4.189221 -1.68517,5.842568 -1.26827,1.277159 -2.785833,2.121321 -4.431683,2.774277 -0.502495,0.199359 -1.018639,0.364316 -1.55283,0.527945 -0.03465,-0.09629 -0.04437,-0.175577 -0.05545,-0.254677 -0.06554,-0.467599 -0.330699,-0.781908 -0.767834,-0.932918 -0.454135,-0.156886 -0.861158,-0.04056 -1.191684,0.30332 -0.398089,0.414169 -0.368488,0.892398 -0.178053,1.386878 z"
   id="path5"
   style="stroke-width:0.0532952;filter:url(#filter497)" />
<path
   fill="#bf9961"
   opacity="1"
   stroke="none"
   d="m 10.449086,28.133517 c -0.644987,-0.08743 -1.2899752,-0.174872 -1.9547252,-0.290509 -0.03621,-0.889795 0.07993,-1.72607 0.432974,-2.521864 1.0477582,-2.361721 2.0964572,-4.723052 3.1337042,-7.089394 0.280756,-0.640508 0.522206,-1.298245 0.791001,-1.962369 0.04222,-0.04385 0.07192,-0.07831 0.108518,-0.102227 1.000878,-0.653895 1.999419,-1.311469 3.006716,-1.955346 0.181896,-0.116271 0.400232,-0.175532 0.605386,-0.239314 -0.139062,0.392279 -0.26784,0.768847 -0.42675,1.132241 -0.942448,2.155192 -1.895291,4.305839 -2.838016,6.460909 -0.956931,2.187544 -1.906189,4.378442 -2.858808,6.567873 z"
   id="path6"
   style="stroke-width:0.0532952;filter:url(#filter496)" />
<path
   fill="#f8cf97"
   opacity="1"
   stroke="none"
   d="m 12.842737,16.283676 c -0.259492,0.649829 -0.500942,1.307566 -0.781698,1.948074 -1.037247,2.366342 -2.085946,4.727673 -3.1337042,7.089394 -0.353048,0.795794 -0.469187,1.632069 -0.45531,2.518006 -1.328273,-0.141724 -2.577374,-0.549834 -3.766647,-1.196256 0.204982,-0.56998 0.415672,-1.108742 0.648648,-1.649261 0.08309,0.0071 0.14402,0.0152 0.20467,0.02503 0.762705,0.123523 1.492072,0.0929 2.127972,-0.458414 0.296408,-0.195646 0.543039,-0.414371 0.657454,-0.767813 0.392555,-0.52871 0.436291,-1.103303 0.311114,-1.707168 -0.148607,-0.716898 -0.598823,-1.226673 -1.14659,-1.690884 0.03711,-0.166438 0.05488,-0.31827 0.112478,-0.45308 0.214756,-0.502612 0.449386,-0.996752 0.66279,-1.499911 0.1163,-0.274208 0.204921,-0.560156 0.326041,-0.846929 0.09694,-0.02642 0.173196,-0.04978 0.250871,-0.06658 1.3646682,-0.295258 2.7431772,-0.545952 3.9819112,-1.244208 z"
   id="path7"
   style="stroke-width:0.0532952;filter:url(#filter495)" />
<path
   fill="#433121"
   opacity="1"
   stroke="none"
   d="m 12.85204,16.269381 c -1.248037,0.71255 -2.626546,0.963244 -3.9912142,1.258502 -0.07767,0.0168 -0.153935,0.04015 -0.27322,0.0615 -0.695298,0.125108 -1.353613,0.226297 -1.999937,0.378427 -1.052486,0.247728 -2.113407,0.479394 -3.07935,0.997452 -1.49241,0.800418 -2.507819,1.914147 -2.445158,3.733463 -0.03336,-0.318815 -0.127562,-0.645022 -0.08987,-0.955202 0.195318,-1.607226 1.092643,-2.7308 2.486954,-3.496438 1.231517,-0.676243 2.595938,-0.946025 3.932999,-1.300132 1.199918,-0.317785 2.4246652,-0.543477 3.5781552,-1.029349 1.164287,-0.490414 2.195307,-1.190611 3.20947,-1.929743 1.196829,-0.87226 2.459593,-1.639981 3.916076,-1.994864 2.63568,-0.642202 5.016613,-0.160006 6.983576,1.780043 1.060439,1.045933 1.611561,2.386791 1.88304,3.840182 0.04221,0.225992 0.02831,0.46247 0.0247,0.704634 -0.261499,-0.699333 -0.436019,-1.444469 -0.76632,-2.112587 -1.075509,-2.175484 -2.890614,-3.228533 -5.292779,-3.310911 -0.702323,-0.02409 -1.400578,0.007 -2.121412,0.219675 -0.110463,0.01892 -0.179372,0.03243 -0.247876,0.04774 -0.705337,0.157646 -1.388256,0.371981 -1.990862,0.788917 -0.201514,0.08558 -0.41985,0.144841 -0.601746,0.261112 -1.007297,0.643877 -2.005838,1.301451 -3.006716,1.955346 -0.0366,0.02391 -0.0663,0.05838 -0.108518,0.102227 z"
   id="path8"
   style="stroke-width:0.0532952;filter:url(#filter494)" />
<path
   fill="#f8cf96"
   opacity="1"
   stroke="none"
   d="m 16.57266,13.972494 c 0.598966,-0.438734 1.281885,-0.653069 1.987222,-0.810715 0.0685,-0.01531 0.137413,-0.02882 0.22674,-0.04247 -0.134659,0.401809 -0.29144,0.802352 -0.444563,1.204288 -0.07779,0.204199 -0.149,0.410911 -0.227848,0.652878 -1.021693,1.035311 -1.601381,2.223693 -1.579879,3.672517 -0.188386,0.368797 -0.394731,0.729634 -0.562293,1.107661 -1.244122,2.806771 -2.480542,5.616957 -3.723603,8.44425 -0.588417,-0.0064 -1.172606,-0.03096 -1.778073,-0.06145 0.931342,-2.195364 1.8806,-4.386262 2.837531,-6.573806 0.942725,-2.15507 1.895568,-4.305717 2.838016,-6.460909 0.15891,-0.363394 0.287688,-0.739962 0.42675,-1.132241 m -3.140941,8.839715 c -0.19156,0.08412 -0.302773,0.220809 -0.24042,0.436083 0.05685,0.196289 0.202662,0.282371 0.406582,0.250483 0.19847,-0.03103 0.297653,-0.1729 0.287294,-0.353061 -0.01372,-0.238564 -0.163608,-0.360181 -0.453456,-0.333505 z"
   id="path9"
   style="stroke-width:0.0532952;filter:url(#filter493)" />
<path
   fill="#be9961"
   opacity="1"
   stroke="none"
   d="m 1.0691278,22.718621 c -0.06863,-1.839209 0.946781,-2.952938 2.439191,-3.753356 0.965943,-0.518058 2.026864,-0.749724 3.07935,-0.997452 0.646324,-0.15213 1.304639,-0.253319 1.979919,-0.372306 -0.07875,0.285729 -0.167374,0.571677 -0.283674,0.845885 -0.213404,0.503159 -0.448034,0.997299 -0.66279,1.499911 -0.0576,0.13481 -0.07537,0.286642 -0.131115,0.448562 -0.175298,-0.04615 -0.327788,-0.119517 -0.487006,-0.172772 -1.185369,-0.396482 -2.433953,0.08693 -3.008886,1.16102 -0.587459,1.097495 -0.313771,2.404432 0.674339,3.174964 0.208984,0.162968 0.441571,0.295669 0.663283,0.442315 -0.210689,0.53876 -0.421379,1.077522 -0.639383,1.634442 -1.335968,-0.586836 -2.461015,-1.438475 -3.193605,-2.72469 -0.20183,-0.354354 -0.285675,-0.775909 -0.429623,-1.186523 z"
   id="path10"
   style="stroke-width:0.0532952;filter:url(#filter492)" />
<path
   fill="#271b0f"
   opacity="1"
   stroke="none"
   d="m 19.032852,27.982128 c -0.427526,0.680492 -1.199472,0.715337 -1.811942,0.04327 -0.02641,-0.204925 -0.05746,-0.371619 -0.05897,-0.53858 -0.0051,-0.562826 0.385184,-0.947502 0.950998,-0.949431 0.566393,-0.0019 0.96601,0.384784 0.964154,0.944152 -5.53e-4,0.166908 -0.02872,0.333726 -0.04424,0.500586 z"
   id="path11"
   style="stroke-width:0.0532952;filter:url(#filter491)" />
<path
   fill="#463422"
   opacity="1"
   stroke="none"
   d="m 19.047591,27.971217 c 7.77e-4,-0.155949 0.02895,-0.322767 0.0295,-0.489675 0.0019,-0.559368 -0.397761,-0.946087 -0.964154,-0.944152 -0.565814,0.0019 -0.956094,0.386605 -0.950998,0.949431 0.0015,0.166961 0.03256,0.333655 0.04952,0.523392 -0.02536,0.0078 -0.05017,-0.0074 -0.08826,-0.02848 -0.203716,-0.500429 -0.233317,-0.978658 0.164772,-1.392827 0.330526,-0.34388 0.737549,-0.460206 1.191684,-0.30332 0.437135,0.15101 0.702296,0.465319 0.767834,0.932918 0.01109,0.0791 0.0208,0.158392 0.03542,0.258473 -0.07068,0.175028 -0.145628,0.329176 -0.235313,0.494236 z"
   id="path12"
   style="stroke-width:0.0532952;filter:url(#filter490)" />
<path
   fill="#5f4534"
   opacity="1"
   stroke="none"
   d="m 24.569448,20.782286 c -0.240886,0.44285 -0.555428,0.817117 -1.033107,1.062195 -0.185227,-0.233348 -0.36691,-0.237119 -0.580349,-0.09878 -0.103677,0.0672 -0.220633,0.114049 -0.332078,0.169099 -0.575854,0.284447 -1.191481,0.434203 -1.826661,0.39874 -1.088157,-0.06075 -2.000628,-0.470375 -2.735221,-1.331833 -0.790133,-0.926589 -1.1251,-1.981295 -0.920729,-3.134767 0.378804,-2.137965 2.117453,-3.542056 4.405062,-3.189239 2.151043,0.331755 3.650118,2.288564 3.193371,4.512354 -0.07067,0.344091 -0.219078,0.672323 -0.332974,1.007399 -0.111369,0.327644 -0.07064,0.481995 0.162686,0.604832 m -1.359359,-3.511073 c -0.626095,-1.09551 -1.578687,-1.547849 -2.791206,-1.325404 -1.391956,0.255364 -2.262973,1.591499 -1.966258,3.016226 0.277417,1.33207 1.657304,2.233884 2.982033,1.948883 1.642914,-0.353457 2.465801,-2.006898 1.775431,-3.639705 z"
   id="path13"
   style="stroke-width:0.0532952;filter:url(#filter489)" />
<path
   fill="#443222"
   opacity="1"
   stroke="none"
   d="m 24.585185,20.773458 c -0.249063,-0.114009 -0.289792,-0.26836 -0.178423,-0.596004 0.113896,-0.335076 0.262302,-0.663308 0.332974,-1.007399 0.456747,-2.22379 -1.042328,-4.180599 -3.193371,-4.512354 -2.287609,-0.352817 -4.026258,1.051274 -4.405062,3.189239 -0.204371,1.153472 0.130596,2.208178 0.920729,3.134767 0.734593,0.861458 1.647064,1.271084 2.735221,1.331833 0.63518,0.03546 1.250807,-0.114293 1.826661,-0.39874 0.111445,-0.05505 0.228401,-0.101903 0.332078,-0.169099 0.213439,-0.138339 0.395122,-0.134568 0.562885,0.09996 -0.465591,0.507691 -1.081327,0.737997 -1.739357,0.877545 -1.83379,0.388885 -3.829556,-0.556811 -4.690024,-2.214545 -0.298478,-0.575035 -0.423302,-1.198402 -0.542254,-1.843906 -0.03441,-1.464585 0.545276,-2.652967 1.571175,-3.666962 0.328419,-0.187219 0.641984,-0.371745 0.968472,-0.529526 2.413436,-1.166343 5.517065,0.09425 6.169011,3.203236 0.216947,1.03457 -0.03154,2.007618 -0.527793,2.924369 -0.03316,0.06125 -0.08437,0.112732 -0.142922,0.177588 z"
   id="path14"
   style="stroke-width:0.0532952;filter:url(#filter488)" />
<path
   fill="#5f4533"
   opacity="1"
   stroke="none"
   d="m 8.3298588,23.805335 c -0.100152,0.340542 -0.346783,0.559267 -0.657914,0.744937 -0.164605,-0.242063 -0.348027,-0.290266 -0.588634,-0.171635 -0.09459,0.04664 -0.200518,0.07049 -0.301593,0.103775 -0.93959,0.309443 -2.006364,-0.165373 -2.393822,-1.069757 -0.323421,-0.754913 -0.227448,-1.474312 0.288489,-2.095643 0.553428,-0.666484 1.293173,-0.840822 2.117976,-0.602615 0.974983,0.281577 1.510357,1.127672 1.364306,2.141832 -0.04902,0.340393 -0.09505,0.670178 0.171192,0.949106 m -1.027799,-1.229411 c -0.02071,-0.113064 -0.0303,-0.229568 -0.06403,-0.338604 -0.158809,-0.513433 -0.764883,-0.885354 -1.27294,-0.787501 -0.637403,0.122765 -1.094459,0.644299 -1.05956,1.209035 0.04067,0.658098 0.578568,1.169802 1.222959,1.163402 0.646141,-0.0064 1.152138,-0.523382 1.173571,-1.246332 z"
   id="path15"
   style="stroke-width:0.0532952;filter:url(#filter487)" />
<path
   fill="#443222"
   opacity="1"
   stroke="none"
   d="m 8.3441218,23.792435 c -0.280502,-0.266028 -0.234476,-0.595813 -0.185455,-0.936206 0.146051,-1.01416 -0.389323,-1.860255 -1.364306,-2.141832 -0.824803,-0.238207 -1.564548,-0.06387 -2.117976,0.602615 -0.515937,0.621331 -0.61191,1.34073 -0.288489,2.095643 0.387458,0.904384 1.454232,1.3792 2.393822,1.069757 0.101075,-0.03329 0.206999,-0.05713 0.301593,-0.103775 0.240607,-0.118631 0.424029,-0.07043 0.570531,0.174894 -0.603074,0.558028 -1.332441,0.588654 -2.095146,0.465131 -0.06065,-0.0098 -0.121582,-0.0179 -0.20467,-0.02503 -0.243999,-0.144887 -0.476586,-0.277588 -0.68557,-0.440556 -0.98811,-0.770532 -1.261798,-2.077469 -0.674339,-3.174964 0.574933,-1.074093 1.823517,-1.557502 3.008886,-1.16102 0.159218,0.05326 0.311708,0.126622 0.485951,0.195192 0.567459,0.446309 1.017675,0.956084 1.166282,1.672982 0.125177,0.603865 0.08144,1.178458 -0.311114,1.707169 z"
   id="path16"
   style="stroke-width:0.0532952;filter:url(#filter486)" />
<path
   fill="#2e2113"
   opacity="1"
   stroke="none"
   d="m 13.452573,22.809919 c 0.268994,-0.02439 0.418887,0.09723 0.432602,0.335795 0.01036,0.180161 -0.08882,0.322027 -0.287294,0.353061 -0.20392,0.03189 -0.349728,-0.05419 -0.406582,-0.250483 -0.06235,-0.215274 0.04886,-0.351965 0.261274,-0.438373 z"
   id="path17"
   style="stroke-width:0.0532952;filter:url(#filter485)" />
<path
   fill="#271b0f"
   opacity="1"
   stroke="none"
   d="m 23.219153,17.289152 c 0.681306,1.614868 -0.141581,3.268309 -1.784495,3.621766 -1.324729,0.285001 -2.704616,-0.616813 -2.982033,-1.948883 -0.296715,-1.424727 0.574302,-2.760862 1.966258,-3.016226 1.212519,-0.222445 2.165111,0.229894 2.80027,1.343343 z"
   id="path18"
   style="stroke-width:0.0532952;filter:url(#filter484)" />
<path
   fill="#281b0f"
   opacity="1"
   stroke="none"
   d="m 7.3023628,22.599278 c -0.02174,0.699596 -0.527734,1.21656 -1.173875,1.222978 -0.644391,0.0064 -1.182291,-0.505304 -1.222959,-1.163402 -0.0349,-0.564736 0.422157,-1.08627 1.05956,-1.209035 0.508057,-0.09785 1.114131,0.274068 1.27294,0.787501 0.03373,0.109036 0.04332,0.22554 0.06433,0.361958 z"
   id="path19"
   style="stroke-width:0.0532952;filter:url(#filter483)" />
</svg>
