<?xml version="1.0" encoding="UTF-8" standalone="no"?>
<!-- Uploaded to: SVG Repo, www.svgrepo.com, Generator: SVG Repo Mixer Tools -->

<svg
   fill="#000000"
   viewBox="0 0 846.66 846.66"
   style="shape-rendering:geometricPrecision; text-rendering:geometricPrecision; image-rendering:optimizeQuality; fill-rule:evenodd; clip-rule:evenodd"
   version="1.1"
   xml:space="preserve"
   id="svg1"
   sodipodi:docname="my-portfolio.svg"
   inkscape:version="1.3.2 (091e20e, 2023-11-25, custom)"
   xmlns:inkscape="http://www.inkscape.org/namespaces/inkscape"
   xmlns:sodipodi="http://sodipodi.sourceforge.net/DTD/sodipodi-0.dtd"
   xmlns="http://www.w3.org/2000/svg"
   xmlns:svg="http://www.w3.org/2000/svg"><sodipodi:namedview
   id="namedview1"
   pagecolor="#505050"
   bordercolor="#ffffff"
   borderopacity="1"
   inkscape:showpageshadow="0"
   inkscape:pageopacity="0"
   inkscape:pagecheckerboard="1"
   inkscape:deskcolor="#505050"
   inkscape:zoom="1.5531619"
   inkscape:cx="423.00806"
   inkscape:cy="423.32999"
   inkscape:window-width="2560"
   inkscape:window-height="1571"
   inkscape:window-x="-9"
   inkscape:window-y="-9"
   inkscape:window-maximized="1"
   inkscape:current-layer="svg1" />

<defs
   id="defs1">

<style
   type="text/css"
   id="style1">
   <![CDATA[
    .fil0 {fill:black;fill-rule:nonzero}
   ]]>
  </style>

</defs>

    <g
   id="Layer_x0020_1">

<path
   class="fil0"
   d="M30.88 111.05l784.9 0c11.4,0 20.64,9.24 20.64,20.64l0 583.28c0,11.4 -9.24,20.64 -20.64,20.64l-784.9 0c-11.4,0 -20.64,-9.24 -20.64,-20.64l0 -583.28c0,-11.4 9.24,-20.64 20.64,-20.64zm146.05 288.17c0,27.16 -41.29,27.16 -41.29,0 0,-32.49 15.12,-63.05 40.68,-82.92 -1.61,-2.27 -3.11,-4.62 -4.48,-7.04 -6.45,-11.45 -10.12,-24.63 -10.12,-38.63 0,-43.57 35.32,-78.89 78.89,-78.89 43.56,0 78.89,35.32 78.89,78.89 0,16.39 -5.09,32.34 -14.61,45.67 25.57,19.87 40.69,50.43 40.69,82.92 0,27.16 -41.29,27.16 -41.29,0 0,-23.44 -12.59,-44.7 -33.14,-55.92 -9.59,4.06 -20.13,6.22 -30.54,6.22 -10.41,0 -20.96,-2.16 -30.55,-6.22 -20.54,11.22 -33.13,32.48 -33.13,55.92zm-55.14 91.99l237.63 0c11.4,0 20.65,9.25 20.65,20.65l0 122.41c0,11.4 -9.25,20.65 -20.65,20.65l-237.63 0c-11.4,0 -20.64,-9.25 -20.64,-20.65l0 -122.41c0,-11.4 9.24,-20.65 20.64,-20.65zm216.99 41.29l-196.34 0 0 81.13 196.34 0 0 -81.13zm-98.17 -299.47c-20.77,0 -37.6,16.83 -37.6,37.6 0,21.09 16.9,37.6 37.6,37.6 20.72,0 37.6,-16.69 37.6,-37.6 0,-20.77 -16.84,-37.6 -37.6,-37.6zm183.62 29.12c-27.15,0 -27.15,-41.29 0,-41.29l300.64 0c27.15,0 27.15,41.29 0,41.29l-300.64 0zm46.81 363.65c-27.16,0 -27.16,-41.3 0,-41.3l253.83 0c27.15,0 27.15,41.3 0,41.3l-253.83 0zm-46.81 -272.74c-27.15,0 -27.15,-41.29 0,-41.29l300.64 0c27.15,0 27.15,41.29 0,41.29l-300.64 0zm46.81 90.91c-27.16,0 -27.16,-41.29 0,-41.29l253.83 0c27.15,0 27.15,41.29 0,41.29l-253.83 0zm0 90.92c-27.16,0 -27.16,-41.3 0,-41.3l253.83 0c27.15,0 27.15,41.3 0,41.3l-253.83 0zm324.09 -382.55l-743.6 0 0 541.98 743.6 0 0 -541.98z"
   id="path1" />

</g>

<path
   style="fill:#ffffff;stroke-width:0.643848"
   d="m 151.8475,418.83102 c -5.9358,-1.25118 -10.61098,-4.64843 -13.44985,-9.77339 -1.88567,-3.40416 -1.90145,-3.51862 -1.84889,-13.4131 0.0409,-7.68889 0.38086,-11.53145 1.48126,-16.74005 4.7199,-22.34096 14.78986,-40.24316 31.55832,-56.10381 l 7.07599,-6.69292 -1.97878,-2.88654 c -4.59659,-6.70523 -9.20841,-18.12312 -11.29237,-27.95748 -1.52332,-7.18871 -1.49789,-21.96729 0.0505,-29.33419 3.40875,-16.21824 10.53764,-29.47884 21.97937,-40.88435 24.29891,-24.22198 60.75219,-29.80878 91.35806,-14.00147 29.99015,15.48931 46.90851,49.40402 41.20593,82.60181 -1.73848,10.12056 -5.67678,20.54333 -10.7722,28.50875 -1.29407,2.02296 -2.35285,3.892 -2.35285,4.15342 0,0.26142 2.2991,2.42946 5.10911,4.81787 2.81002,2.38841 7.47004,7.16677 10.35562,10.61857 14.30669,17.11408 22.32415,36.39715 24.49607,58.91644 1.2007,12.44929 -0.26657,18.20317 -5.94347,23.30718 -9.65863,8.68395 -26.25444,6.0699 -31.87443,-5.02061 -1.35713,-2.67816 -1.81999,-4.98878 -2.55851,-12.77204 -1.35259,-14.25501 -4.43646,-23.38806 -11.37533,-33.68875 -3.6804,-5.46352 -10.86096,-12.46422 -16.6765,-16.25879 l -4.96699,-3.2409 -5.33458,1.82411 c -9.11018,3.11515 -15.33195,4.11181 -25.61578,4.10335 -10.28651,-0.008 -16.57236,-1.03901 -25.41555,-4.1668 l -5.13434,-1.81598 -3.55761,2.16923 c -10.67481,6.50889 -20.29358,18.09654 -25.13182,30.27611 -2.65005,6.67112 -3.83704,12.31863 -4.47846,21.30784 -0.68573,9.61013 -2.05886,13.22892 -6.55281,17.26936 -4.73395,4.25622 -12.06522,6.20379 -18.3591,4.87713 z m 100.72147,-112.3617 c 12.26706,-3.89593 21.34886,-13.65414 24.62336,-26.4573 3.36194,-13.14508 -0.29506,-26.42871 -9.92774,-36.06139 -9.64916,-9.64917 -22.91387,-13.2903 -36.11601,-9.91376 -11.85237,3.03133 -21.16364,11.22435 -25.64018,22.56091 -9.07971,22.9938 5.45969,47.94212 30.13993,51.71744 3.86641,0.59145 12.06099,-0.30252 16.92064,-1.8459 z"
   id="path2" /><path
   style="fill:#ffffff;stroke-width:0.643848"
   d="m 114.32329,653.06356 c -4.24264,-1.63313 -9.19271,-6.35621 -11.18727,-10.67427 l -1.40805,-3.04834 v -66.31633 -66.31633 l 1.59425,-3.21924 c 2.03842,-4.11611 6.32983,-8.40819 10.19051,-10.19209 l 3.02374,-1.39717 123.09437,-0.16747 123.09438,-0.16747 3.69138,1.38113 c 4.48472,1.67795 8.79532,5.51328 11.09685,9.87337 l 1.71296,3.24509 0.17287,65.98013 c 0.16174,61.73081 0.0995,66.18486 -0.96577,69.15893 -1.45962,4.07485 -5.8865,8.99686 -10.08324,11.21098 l -3.28852,1.73497 -123.61879,0.13085 -123.6188,0.13085 z m 224.66262,-80.03894 v -40.88434 h -98.50872 -98.50873 v 40.88434 40.88434 h 98.50873 98.50872 z"
   id="path3" /><path
   style="fill:#ffffff;stroke-width:0.643848"
   d="m 27.834512,734.93013 c -6.505427,-1.09818 -11.936095,-5.12043 -15.18265,-11.2451 l -1.706448,-3.21924 v -297.1358 -297.1358 l 1.706448,-3.21924 c 3.376017,-6.36891 8.606263,-10.11305 15.764712,-11.28537 5.151821,-0.84371 784.674976,-0.84371 789.826846,0 7.15843,1.17232 12.38867,4.91646 15.76468,11.28537 l 1.70646,3.21924 v 297.1358 297.1358 l -1.73498,3.28851 c -2.15792,4.09026 -7.27786,8.76975 -11.30668,10.334 -2.95442,1.14713 -15.97631,1.18884 -397.41137,1.27305 -216.89626,0.0479 -395.738416,-0.14616 -397.427018,-0.43122 z M 795.47407,423.32999 V 152.27003 H 423.32999 51.185907 V 423.32999 694.38995 H 423.32999 795.47407 Z"
   id="path4" /><path
   style="fill:#ffffff;stroke-width:0.643848"
   d="m 464.20087,624.34159 c -4.25329,-1.47493 -6.96912,-3.47119 -9.26787,-6.81231 -7.19653,-10.45979 -4.05447,-24.89511 6.64798,-30.54232 l 3.2772,-1.72923 131.642,-0.16709 c 149.99246,-0.19038 136.046,-0.73249 142.31015,5.53166 4.76426,4.76426 6.07188,8.41085 5.66452,15.79683 -0.46078,8.35463 -4.13374,14.05457 -11.13211,17.27553 l -3.21923,1.48164 -131.34497,0.14315 c -123.38554,0.13448 -131.54087,0.0752 -134.57767,-0.97786 z"
   id="path5" /><path
   style="fill:#ffffff;stroke-width:0.643848"
   d="m 465.77846,533.83922 c -7.08598,-1.92004 -11.79175,-6.61619 -13.90134,-13.87292 -2.18105,-7.50255 0.27526,-16.22163 5.98605,-21.24847 5.64898,-4.97242 -6.40315,-4.59619 141.26083,-4.40971 l 132.2872,0.16706 3.46343,1.9182 c 6.80877,3.77101 10.08998,10.34719 9.60148,19.2432 -0.44664,8.13366 -3.91253,13.63032 -10.69452,16.96078 l -3.65808,1.79639 -130.70113,0.12143 c -102.21154,0.095 -131.34258,-0.0524 -133.64392,-0.67596 z"
   id="path6" /><path
   style="fill:#ffffff;stroke-width:0.643848"
   d="m 466.4678,443.04542 c -4.52078,-1.00937 -6.81782,-2.26194 -9.78691,-5.33675 -3.86265,-4.00019 -5.33209,-7.96858 -5.32423,-14.37868 0.005,-4.33933 0.31837,-6.16791 1.51162,-8.82958 1.87173,-4.17513 6.50593,-8.59178 10.72033,-10.2171 3.11748,-1.20228 6.62414,-1.23453 134.22415,-1.23453 124.0662,0 131.19771,0.061 134.31266,1.14839 4.27357,1.49188 7.86974,4.62166 10.2517,8.92216 1.77842,3.21082 1.91104,3.9194 1.91104,10.21066 0,6.36838 -0.11569,6.96575 -1.99514,10.30156 -2.1343,3.78813 -6.52127,7.59762 -10.44787,9.07255 -3.31204,1.24409 -259.85623,1.57404 -265.37735,0.34132 z"
   id="path7" /><path
   style="fill:#ffffff;stroke-width:0.643848"
   d="m 418.1792,351.90731 c -3.27018,-1.00377 -6.97007,-3.26601 -8.71386,-5.32795 -6.86866,-8.12181 -6.84749,-20.42015 0.0483,-28.08998 1.68923,-1.87883 4.20532,-3.77113 6.23213,-4.68706 l 3.39916,-1.53609 h 155.48926 155.48927 l 3.65808,1.79639 c 6.884,3.38054 10.2737,8.83684 10.68366,17.19712 0.21942,4.47462 0.0171,6.13898 -1.10911,9.12606 -1.56963,4.16301 -5.11984,8.15465 -9.18202,10.3237 l -2.76292,1.47529 -155.81119,0.1083 c -85.69615,0.0596 -156.53552,-0.11404 -157.42081,-0.38578 z"
   id="path8" /><path
   style="fill:#ffffff;stroke-width:0.643848"
   d="m 416.45942,260.37687 c -4.28254,-1.64668 -8.26827,-5.54095 -10.38012,-10.14192 -2.36598,-5.15465 -2.3763,-12.42652 -0.0248,-17.48394 1.96483,-4.22585 5.43176,-7.81084 9.48504,-9.80804 l 2.96161,-1.4593 h 156.13311 156.13311 l 3.21924,1.71309 c 6.91989,3.68236 10.60682,9.92281 10.6172,17.97054 0.009,6.92205 -1.35579,10.42428 -5.79285,14.86596 -6.26863,6.27517 10.61476,5.69551 -164.77644,5.65736 -152.35752,-0.0331 -154.28643,-0.0492 -157.57508,-1.31375 z"
   id="path9" /></svg>
