<?xml version="1.0" encoding="UTF-8" standalone="no"?>
<!-- Uploaded to: SVG Repo, www.svgrepo.com, Generator: SVG Repo Mixer Tools -->

<svg
		version="1.1"
		id="_x32_"
		viewBox="0 0 512 512"
		xml:space="preserve"
		sodipodi:docname="submarine-2-svgrepo-com.svg"
		inkscape:version="1.3.2 (091e20e, 2023-11-25, custom)"
		xmlns:inkscape="http://www.inkscape.org/namespaces/inkscape"
		xmlns:sodipodi="http://sodipodi.sourceforge.net/DTD/sodipodi-0.dtd"
		xmlns="http://www.w3.org/2000/svg"
		xmlns:svg="http://www.w3.org/2000/svg"><defs
   id="defs1" /><sodipodi:namedview
		id="namedview1"
		pagecolor="#505050"
		bordercolor="#ffffff"
		borderopacity="1"
		inkscape:showpageshadow="0"
		inkscape:pageopacity="0"
		inkscape:pagecheckerboard="1"
		inkscape:deskcolor="#505050"
		inkscape:zoom="1.64375"
		inkscape:cx="399.69582"
		inkscape:cy="400"
		inkscape:window-width="2560"
		inkscape:window-height="1571"
		inkscape:window-x="-9"
		inkscape:window-y="-9"
		inkscape:window-maximized="1"
		inkscape:current-layer="_x32_" />
	<style
			type="text/css"
			id="style1">
	.st0{fill:#000000;}
</style>
	<g
			id="g1">
	<path
			class="st0"
			d="M512,318.877c0-8.805-8.85-17.39-22.012-25.667l14.297-68.634c0.87-4.171-0.188-8.512-2.874-11.821   c-2.692-3.309-6.724-5.227-10.988-5.227h-33.914c-5.504,0-10.512,3.195-12.838,8.187l-21.065,45.284   c-16.337-7.114-30.987-13.821-39.735-20.025c-25.854-18.341-60.679-32.308-100.598-39.804l-18.126-30.926   c-7.626-13.001-21.569-20.992-36.646-20.992h-34.849c-0.313-21.992-0.895-42.537-0.874-48.634   c0.028-12.91-10.41-28.537-35.44-28.594c0,0-3.187-5.212-8.073-1.252c-4.443,3.634-3.96,32.065-0.093,36.317   c4.04,4.456,6.463-0.374,6.463-0.374s5.911-1.196,8.61,0.024c2.671,1.204,4.276,4.586,4.252,17.496   c-0.012,4.098-0.036,13.658-0.065,25.032c-21.797,0.09-40.004,16.659-42.106,38.366l-1.638,16.927   C50.602,221.161,0,259.446,0,318.877c0,82.065,96.443,123.837,215.415,123.837c69.183,0,130.748-18.748,170.163-47.886   c8.24-6.089,22.378-12.642,38.268-19.569l19.825,42.618c2.325,4.992,7.334,8.187,12.838,8.187h33.914   c4.264,0,8.297-1.919,10.988-5.228c2.686-3.308,3.744-7.65,2.874-11.821l-13.638-65.464C503.419,335.568,512,327.324,512,318.877z    M99.35,341.422c-18.471,0-33.443-14.976-33.443-33.448c0-18.464,14.972-33.439,33.443-33.439   c18.468,0,33.439,14.975,33.439,33.439C132.789,326.446,117.818,341.422,99.35,341.422z M199.106,341.422   c-18.471,0-33.439-14.976-33.439-33.448c0-18.464,14.968-33.439,33.439-33.439c18.472,0,33.443,14.975,33.443,33.439   C232.549,326.446,217.578,341.422,199.106,341.422z M298.866,341.422c-18.468,0-33.439-14.976-33.439-33.448   c0-18.464,14.971-33.439,33.439-33.439c18.471,0,33.442,14.975,33.442,33.439C332.309,326.446,317.338,341.422,298.866,341.422z"
			id="path1" />
</g>
	<path
			style="fill:#ffffff;stroke-width:0.608365;fill-opacity:1"
			d="m 309.65779,691.04083 c -15.73094,-0.76325 -29.166,-1.65994 -40.76045,-2.72049 -79.33606,-7.2569 -146.924,-28.07935 -193.428437,-59.59133 C 37.468959,602.97978 13.738582,571.14868 4.5282005,533.57164 1.4898928,521.17577 0.66977795,513.72417 0.64084861,498.25095 0.60576767,479.48752 2.4467452,467.6148 7.9516362,451.10266 20.426739,413.6831 49.249972,381.83077 93.429992,356.64119 c 5.909835,-3.36954 22.529608,-11.42663 30.354838,-14.7157 17.9125,-7.52892 38.04575,-14.14204 59.02886,-19.38908 l 10.64639,-2.66224 1.60646,-15.75458 c 0.88356,-8.66501 2.04231,-17.59901 2.57501,-19.85331 5.06175,-21.42073 21.17291,-39.37257 42.05427,-46.85892 4.76657,-1.7089 11.92973,-3.21439 18.09886,-3.80385 l 4.10646,-0.39237 v -24.45423 c 0,-26.79627 -0.46221,-33.11055 -2.77401,-37.89581 -2.12788,-4.40455 -4.1907,-5.29466 -11.5268,-4.9738 -5.39934,0.23615 -5.69054,0.32225 -7.62199,2.2537 -1.67453,1.67453 -2.31599,1.9466 -3.86098,1.6376 -6.07508,-1.21501 -8.88655,-11.23924 -8.88513,-31.67974 0.001,-20.76995 2.96997,-29.50116 10.03013,-29.50116 2.03895,0 5.63348,1.94897 6.16917,3.34495 0.24664,0.64273 1.26549,0.91011 3.47767,0.91265 4.06224,0.005 13.77252,1.4969 18.03377,2.77138 14.55754,4.35395 24.80533,12.72027 30.50815,24.90692 3.58427,7.65941 3.61491,7.94967 4.20621,39.84663 0.30084,16.22814 0.7184,34.75618 0.92792,41.17342 l 0.38094,11.66773 31.41804,0.26073 c 25.37053,0.21054 32.23776,0.44181 35.67661,1.20144 13.70821,3.02813 25.05072,9.20129 34.43799,18.74287 5.84801,5.94414 7.12025,7.89263 24.23861,37.12239 l 14.10529,24.08493 4.06533,0.73482 c 15.83601,2.86238 46.90208,11.10245 63.38091,16.81136 32.82807,11.37293 62.44147,25.9105 86.7585,42.59077 9.96943,6.83853 18.33163,11.57948 32.78523,18.58761 11.50777,5.57979 31.52036,14.55568 32.43151,14.54597 0.23112,-0.002 8.06303,-16.44971 17.40423,-36.54944 18.93488,-40.74269 19.0018,-40.85549 26.38887,-44.49213 l 4.05396,-1.99578 h 31.66059 31.6606 l 4.01612,1.97714 c 4.74914,2.338 8.52654,6.18801 10.67443,10.87972 2.99164,6.53459 3.19988,5.07138 -9.1882,64.56236 -6.21907,29.86575 -11.3053,54.7783 -11.30275,55.36122 0.003,0.58327 1.02844,1.6469 2.28137,2.36532 4.48712,2.57292 15.00222,10.83099 19.56697,15.367 8.61457,8.56022 12.73125,16.91662 12.04769,24.45525 -0.92003,10.14613 -11.08836,22.25569 -27.87674,33.19866 -4.38723,2.85967 -5.38215,3.7794 -5.15024,4.76109 2.49746,10.57329 21.63577,104.39222 21.63577,106.06206 0,7.71888 -5.26369,15.75385 -12.71878,19.41507 l -3.40289,1.67116 h -32.24335 -32.24334 l -3.36627,-1.65326 c -4.42817,-2.17476 -8.50622,-6.33616 -10.77992,-11.00023 -1.01147,-2.0748 -8.32846,-17.73435 -16.26008,-34.79899 -7.93156,-17.06463 -14.53317,-31.14123 -14.67017,-31.28133 -0.3927,-0.40137 -20.65978,8.7664 -33.70683,15.24721 -13.44201,6.67699 -18.88542,9.88518 -29.77589,17.54908 -57.34189,40.35297 -133.25656,64.53027 -223.60814,71.21471 -8.75615,0.6478 -56.87795,1.24887 -65.70343,0.82067 z M 168.51711,532.0393 c 17.65525,-4.56375 31.70988,-18.25803 37.17496,-36.22181 1.49802,-4.92401 1.66573,-6.39407 1.66573,-14.60076 0,-8.20669 -0.16771,-9.67675 -1.66573,-14.60076 -5.45805,-17.9407 -19.28647,-31.43692 -37.17496,-36.28193 -7.09515,-1.92168 -19.28085,-1.92119 -26.45658,10e-4 -14.91965,3.99672 -27.28188,14.13315 -33.86021,27.76375 -4.01218,8.3134 -5.22154,13.66775 -5.22154,23.11787 0,9.45012 1.20936,14.80447 5.22154,23.11787 7.40812,15.34998 22.10012,26.17645 39.20556,28.89043 5.2298,0.82977 15.5583,0.24966 21.11123,-1.18573 z m 155.74145,-10e-4 c 23.22436,-6.00834 39.23954,-26.75057 39.23954,-50.82152 0,-24.08473 -15.7374,-44.49318 -39.23954,-50.88632 -3.92638,-1.06807 -6.51287,-1.32213 -13.38404,-1.31467 -7.45076,0.008 -9.18712,0.21141 -13.86864,1.62397 -18.83392,5.6828 -32.52172,19.84932 -36.92491,38.21633 -1.66365,6.93955 -1.66365,17.78183 0,24.72138 4.17133,17.39987 17.57243,31.93756 34.5755,37.50796 9.11306,2.98555 20.34726,3.34717 29.60209,0.95287 z m 155.74144,0 c 19.22823,-4.97451 34.33658,-20.64565 38.27185,-39.69751 1.37707,-6.66683 1.26366,-17.15425 -0.25396,-23.4847 -4.41297,-18.4078 -18.04917,-32.5209 -36.92491,-38.21633 -4.68152,-1.41256 -6.41788,-1.61589 -13.86865,-1.62397 -9.72678,-0.0106 -14.99014,1.09364 -22.75969,4.77479 -28.45726,13.48281 -38.70142,49.42239 -21.61566,75.83426 12.30701,19.0247 35.33753,28.05679 57.15102,22.41346 z"
			id="path2"
			transform="scale(0.64)" /></svg>
